<?xml version="1.0" encoding="UTF-8"?>
<!DOCTYPE svg PUBLIC "-//W3C//DTD SVG 1.1//EN" "http://www.w3.org/Graphics/SVG/1.1/DTD/svg11.dtd">
<svg version="1.1" xmlns="http://www.w3.org/2000/svg" xmlns:xlink="http://www.w3.org/1999/xlink" x="0" y="0" width="660" height="340" viewBox="0, 0, 660, 340">
  <defs>
    <linearGradient id="Gradient_1" gradientUnits="userSpaceOnUse" x1="400.534" y1="161.767" x2="467.555" y2="161.767">
      <stop offset="0" stop-color="#FFFFFE"/>
      <stop offset="1" stop-color="#1B1A19"/>
    </linearGradient>
    <linearGradient id="Gradient_2" gradientUnits="userSpaceOnUse" x1="433.272" y1="164.072" x2="500.293" y2="164.072">
      <stop offset="0" stop-color="#FFFFFE"/>
      <stop offset="1" stop-color="#1B1A19"/>
    </linearGradient>
    <clipPath id="Clip_1">
      <path d="M500.205,45.986 C489.918,50.657 481.287,57.938 474.483,66.533 C471.027,70.799 467.949,75.362 465.249,80.141 C462.531,84.902 460.047,89.816 457.905,94.874 C453.648,105.008 450.174,115.493 447.69,126.23 C445.098,136.931 443.253,147.848 442.398,158.783 C441.93,164.255 441.714,169.691 441.867,175.145 C441.957,180.707 442.227,186.26 442.488,191.804 C443.082,202.892 444.261,213.926 446.115,224.816 C447.051,230.261 448.293,235.634 449.733,240.944 C451.173,246.254 453.018,251.438 455.259,256.451 C459.666,266.661 466.461,275.612 475.421,282.2 L475.393,282.2 C470.222,279.788 465.774,276.2 461.73,272.228 C457.707,268.124 454.359,263.363 451.479,258.377 C445.809,248.315 442.11,237.308 439.491,226.184 C436.773,215.06 435.36,203.711 434.289,192.398 C433.794,186.728 433.506,181.058 433.281,175.388 C433.047,169.601 433.263,163.787 433.713,158.063 C435.846,135.185 441.516,112.649 451.74,92.012 C456.843,81.725 463.251,71.978 471.279,63.689 C479.307,55.481 489.225,48.812 500.205,45.986 z"/>
    </clipPath>
    <linearGradient id="Gradient_3" gradientUnits="userSpaceOnUse" x1="488.026" y1="168.958" x2="533.987" y2="168.958">
      <stop offset="0" stop-color="#FFFFFE"/>
      <stop offset="1" stop-color="#1B1A19"/>
    </linearGradient>
    <linearGradient id="Gradient_4" gradientUnits="userSpaceOnUse" x1="632.411" y1="179.755" x2="637.358" y2="179.755">
      <stop offset="0" stop-color="#FFFFFE"/>
      <stop offset="1" stop-color="#1B1A19"/>
    </linearGradient>
    <clipPath id="Clip_2">
      <path d="M633.515,172.193 L637.311,172.436 C636.762,175.658 636.645,178.988 636.816,182.3 C637.099,185.633 636.918,183.98 637.358,187.261 L637.358,187.312 L633.009,187.025 C632.739,185.549 632.55,184.046 632.46,182.543 C632.406,179.044 632.309,179.122 632.926,174.752 C633.048,173.885 633.317,173.046 633.513,172.193 L633.515,172.193 z"/>
    </clipPath>
    <linearGradient id="Gradient_5" gradientUnits="userSpaceOnUse" x1="638.228" y1="162.701" x2="644.353" y2="162.701">
      <stop offset="0" stop-color="#FFFFFE"/>
      <stop offset="1" stop-color="#1B1A19"/>
    </linearGradient>
    <clipPath id="Clip_3">
      <path d="M643.774,161.466 C644.144,161.474 643.953,161.466 644.349,161.492 C642.855,162.041 641.694,162.896 640.767,163.931 L638.229,163.769 C639.85,162.258 641.576,161.706 643.719,161.466 L643.774,161.466 z"/>
    </clipPath>
    <linearGradient id="Gradient_6" gradientUnits="userSpaceOnUse" x1="633.694" y1="197.178" x2="644.897" y2="197.178">
      <stop offset="0" stop-color="#FFFFFE"/>
      <stop offset="1" stop-color="#1B1A19"/>
    </linearGradient>
    <clipPath id="Clip_4">
      <path d="M633.694,189.986 L637.896,190.265 C638.166,191.525 638.472,192.785 638.859,194.018 C640.002,197.957 642.029,201.461 644.893,204.372 L644.886,204.372 C642.743,203.741 641.028,202.285 639.435,200.786 C637.923,199.166 636.654,197.294 635.682,195.305 C634.191,191.817 634.854,193.59 633.694,189.989 L633.694,189.986 z"/>
    </clipPath>
    <linearGradient id="Gradient_7" gradientUnits="userSpaceOnUse" x1="620.94" y1="195.285" x2="631.489" y2="195.285">
      <stop offset="0" stop-color="#FFFFFE"/>
      <stop offset="1" stop-color="#1B1A19"/>
    </linearGradient>
    <linearGradient id="Gradient_8" gradientUnits="userSpaceOnUse" x1="619.002" y1="178.866" x2="624.315" y2="178.866">
      <stop offset="0" stop-color="#FFFFFE"/>
      <stop offset="1" stop-color="#1B1A19"/>
    </linearGradient>
    <clipPath id="Clip_5">
      <path d="M619.71,171.273 L623.613,171.536 C623.325,174.11 623.271,176.738 623.406,179.348 C623.854,184.103 623.551,181.736 624.315,186.448 L624.315,186.449 L620.049,186.17 C619.509,184.01 619.185,181.805 619.05,179.591 C618.859,176.802 619.159,174.021 619.607,171.273 L619.71,171.273 z"/>
    </clipPath>
    <linearGradient id="Gradient_9" gradientUnits="userSpaceOnUse" x1="623.122" y1="160.735" x2="630.939" y2="160.735">
      <stop offset="0" stop-color="#FFFFFE"/>
      <stop offset="1" stop-color="#1B1A19"/>
    </linearGradient>
    <clipPath id="Clip_6">
      <path d="M630.323,158.513 C630.732,158.522 630.527,158.513 630.939,158.54 C628.696,159.292 627.228,161.035 625.991,162.956 L625.944,162.956 L623.127,162.77 C623.622,162.086 624.162,161.429 624.783,160.844 C626.416,159.311 628.153,158.756 630.317,158.513 L630.323,158.513 z"/>
    </clipPath>
    <linearGradient id="Gradient_10" gradientUnits="userSpaceOnUse" x1="609.972" y1="159.486" x2="618.348" y2="159.486">
      <stop offset="0" stop-color="#FFFFFE"/>
      <stop offset="1" stop-color="#1B1A19"/>
    </linearGradient>
    <linearGradient id="Gradient_11" gradientUnits="userSpaceOnUse" x1="608.654" y1="194.065" x2="618.89" y2="194.065">
      <stop offset="0" stop-color="#FFFFFE"/>
      <stop offset="1" stop-color="#1B1A19"/>
    </linearGradient>
    <clipPath id="Clip_7">
      <path d="M608.809,188.34 L612.624,188.591 C612.705,188.861 612.759,189.149 612.849,189.419 C614.055,193.19 615.738,196.853 618.888,199.778 C616.818,199.148 614.982,197.78 613.434,196.196 C611.913,194.567 610.653,192.695 609.672,190.706 C608.96,189.14 609.297,189.928 608.659,188.34 L608.809,188.34 z"/>
    </clipPath>
    <linearGradient id="Gradient_12" gradientUnits="userSpaceOnUse" x1="606.404" y1="178.026" x2="611.881" y2="178.026">
      <stop offset="0" stop-color="#FFFFFE"/>
      <stop offset="1" stop-color="#1B1A19"/>
    </linearGradient>
    <clipPath id="Clip_8">
      <path d="M606.918,170.423 L610.932,170.69 C610.716,173.012 610.68,175.37 610.806,177.701 C611.327,183.006 610.968,180.371 611.882,185.607 L611.882,185.628 L611.856,185.628 L607.674,185.351 C607.008,182.93 606.603,180.446 606.45,177.953 C606.287,175.432 606.521,172.916 606.873,170.423 L606.918,170.423 z"/>
    </clipPath>
    <linearGradient id="Gradient_13" gradientUnits="userSpaceOnUse" x1="594.697" y1="177.249" x2="600.029" y2="177.249">
      <stop offset="0" stop-color="#FFFFFE"/>
      <stop offset="1" stop-color="#1B1A19"/>
    </linearGradient>
    <clipPath id="Clip_9">
      <path d="M595.281,169.655 L599.295,169.916 C599.016,172.472 598.971,175.064 599.097,177.647 C599.563,182.458 599.252,180.066 600.029,184.822 L600.029,184.842 L599.959,184.842 L595.767,184.559 C595.218,182.372 594.885,180.14 594.75,177.89 C594.606,175.154 594.75,172.373 595.281,169.655 z"/>
    </clipPath>
    <linearGradient id="Gradient_14" gradientUnits="userSpaceOnUse" x1="596.66" y1="193.625" x2="607.179" y2="193.625">
      <stop offset="0" stop-color="#FFFFFE"/>
      <stop offset="1" stop-color="#1B1A19"/>
    </linearGradient>
    <clipPath id="Clip_10">
      <path d="M596.673,187.53 L600.717,187.799 C600.852,188.321 600.978,188.852 601.14,189.365 C602.355,193.136 604.038,196.799 607.179,199.715 C605.109,199.085 603.273,197.726 601.725,196.142 C600.204,194.513 598.944,192.641 597.963,190.652 C597.036,188.595 597.47,189.634 596.66,187.534 L596.66,187.53 L596.673,187.53 z"/>
    </clipPath>
    <linearGradient id="Gradient_15" gradientUnits="userSpaceOnUse" x1="598.75" y1="159.083" x2="606.63" y2="159.083">
      <stop offset="0" stop-color="#FFFFFE"/>
      <stop offset="1" stop-color="#1B1A19"/>
    </linearGradient>
    <clipPath id="Clip_11">
      <path d="M606.333,156.819 L606.63,156.838 L606.63,156.843 C604.352,157.608 602.873,159.384 601.626,161.339 L598.755,161.15 C599.268,160.439 599.826,159.755 600.474,159.143 C602.086,157.633 603.815,157.058 605.955,156.819 L606.333,156.819 z"/>
    </clipPath>
    <linearGradient id="Gradient_16" gradientUnits="userSpaceOnUse" x1="583.222" y1="192.404" x2="593.488" y2="192.404">
      <stop offset="0" stop-color="#FFFFFE"/>
      <stop offset="1" stop-color="#1B1A19"/>
    </linearGradient>
    <clipPath id="Clip_12">
      <path d="M583.236,186.639 L587.199,186.908 C587.289,187.205 587.352,187.511 587.442,187.817 C588.657,191.588 590.34,195.251 593.481,198.167 C591.411,197.537 589.575,196.169 588.027,194.585 C586.515,192.956 585.246,191.093 584.274,189.104 C583.533,187.476 583.883,188.297 583.222,186.64 L583.222,186.639 L583.236,186.639 z"/>
    </clipPath>
    <linearGradient id="Gradient_17" gradientUnits="userSpaceOnUse" x1="581.005" y1="176.344" x2="586.467" y2="176.344">
      <stop offset="0" stop-color="#FFFFFE"/>
      <stop offset="1" stop-color="#1B1A19"/>
    </linearGradient>
    <clipPath id="Clip_13">
      <path d="M581.484,168.746 L585.534,169.016 C585.318,171.356 585.282,173.732 585.399,176.099 C585.923,181.351 585.567,178.741 586.467,183.929 L586.467,183.945 L586.44,183.945 L582.249,183.668 C581.601,181.274 581.205,178.808 581.052,176.342 C580.926,173.813 581.043,171.257 581.484,168.746 z"/>
    </clipPath>
    <linearGradient id="Gradient_18" gradientUnits="userSpaceOnUse" x1="584.607" y1="157.847" x2="592.936" y2="157.847">
      <stop offset="0" stop-color="#FFFFFE"/>
      <stop offset="1" stop-color="#1B1A19"/>
    </linearGradient>
    <clipPath id="Clip_14">
      <path d="M592.691,155.271 L592.936,155.291 L592.936,155.293 C590.406,156.146 588.87,158.185 587.604,160.412 L584.616,160.214 C585.228,159.269 585.948,158.378 586.785,157.595 C588.329,156.13 590.106,155.505 592.178,155.271 L592.691,155.271 z"/>
    </clipPath>
    <linearGradient id="Gradient_19" gradientUnits="userSpaceOnUse" x1="567.282" y1="175.44" x2="573.001" y2="175.44">
      <stop offset="0" stop-color="#FFFFFE"/>
      <stop offset="1" stop-color="#1B1A19"/>
    </linearGradient>
    <clipPath id="Clip_15">
      <path d="M567.654,167.824 L571.701,168.089 C571.575,170.051 571.584,172.031 571.683,174.002 C571.872,177.044 572.295,180.086 572.997,183.056 L568.884,182.777 C568.011,180.005 567.507,177.134 567.336,174.245 C567.3,169.959 567.219,172.099 567.579,167.824 L567.654,167.824 z"/>
    </clipPath>
    <linearGradient id="Gradient_20" gradientUnits="userSpaceOnUse" x1="570.23" y1="156.328" x2="579.228" y2="156.328">
      <stop offset="0" stop-color="#FFFFFE"/>
      <stop offset="1" stop-color="#1B1A19"/>
    </linearGradient>
    <clipPath id="Clip_16">
      <path d="M578.929,153.175 L579.225,153.194 C576.12,154.328 574.428,156.758 573.384,159.467 L570.231,159.26 L570.231,159.25 C570.962,157.847 571.972,156.633 573.06,155.498 C574.663,153.991 576.39,153.414 578.524,153.175 L578.929,153.175 z"/>
    </clipPath>
    <linearGradient id="Gradient_21" gradientUnits="userSpaceOnUse" x1="569.99" y1="190.925" x2="579.767" y2="190.925">
      <stop offset="0" stop-color="#FFFFFE"/>
      <stop offset="1" stop-color="#1B1A19"/>
    </linearGradient>
    <clipPath id="Clip_17">
      <path d="M570.082,185.771 L573.825,186.017 C575.031,189.689 576.705,193.226 579.765,196.07 C577.695,195.449 575.859,194.081 574.311,192.488 C572.79,190.868 571.53,188.996 570.549,187.007 C570.165,186.183 570.35,186.596 569.994,185.771 L570.082,185.771 z"/>
    </clipPath>
    <linearGradient id="Gradient_22" gradientUnits="userSpaceOnUse" x1="529.117" y1="204.161" x2="552.296" y2="204.161">
      <stop offset="0" stop-color="#FFFFFE"/>
      <stop offset="1" stop-color="#1B1A19"/>
    </linearGradient>
    <clipPath id="Clip_18">
      <path d="M552.296,197.503 C550.918,201.905 549.67,206.343 548.562,210.82 L547.585,210.82 L529.122,210.803 C529.329,206.132 530.976,201.038 532.272,198.122 L532.317,198.014 L552.215,197.503 L552.296,197.503 z"/>
    </clipPath>
    <linearGradient id="Gradient_23" gradientUnits="userSpaceOnUse" x1="533.989" y1="131.389" x2="569.674" y2="131.389">
      <stop offset="0" stop-color="#FFFFFE"/>
      <stop offset="1" stop-color="#1B1A19"/>
    </linearGradient>
    <clipPath id="Clip_19">
      <path d="M569.674,126.257 L569.674,126.26 C567.552,129.387 563.772,130.12 560.316,130.856 C558.786,131.171 556.365,132.818 554.178,135.536 L534.385,136.542 L534.011,136.542 C535.413,135.163 534.675,135.842 536.232,134.51 C539.499,131.873 542.415,129.515 544.953,127.346 L569.674,126.257 z"/>
    </clipPath>
    <linearGradient id="Gradient_24" gradientUnits="userSpaceOnUse" x1="529.575" y1="155.54" x2="554.686" y2="155.54">
      <stop offset="0" stop-color="#FFFFFE"/>
      <stop offset="1" stop-color="#1B1A19"/>
    </linearGradient>
    <clipPath id="Clip_20">
      <path d="M550.236,143.017 C548.529,148.81 549.26,153.664 551.253,159.251 C552.819,163.13 553.926,165.38 554.673,167.774 L536.475,168.053 C532.65,159.26 528.366,151.286 529.878,144.041 L550.196,143.017 L550.236,143.017 z"/>
    </clipPath>
    <linearGradient id="Gradient_25" gradientUnits="userSpaceOnUse" x1="550.549" y1="237.768" x2="574.4" y2="237.768">
      <stop offset="0" stop-color="#FFFFFE"/>
      <stop offset="1" stop-color="#1B1A19"/>
    </linearGradient>
    <linearGradient id="Gradient_26" gradientUnits="userSpaceOnUse" x1="535.466" y1="182.868" x2="556.028" y2="182.868">
      <stop offset="0" stop-color="#FFFFFE"/>
      <stop offset="1" stop-color="#1B1A19"/>
    </linearGradient>
    <clipPath id="Clip_21">
      <path d="M555.871,175.044 C555.974,176.783 556.016,178.524 556.03,180.266 L556.03,181.934 C555.92,184.744 555.144,187.476 554.448,190.184 L535.476,190.67 C537.357,185.855 538.86,180.554 538.428,175.289 L554.254,175.044 L555.871,175.044 z"/>
    </clipPath>
    <linearGradient id="Gradient_27" gradientUnits="userSpaceOnUse" x1="558.743" y1="102.802" x2="581.785" y2="102.802">
      <stop offset="0" stop-color="#FFFFFE"/>
      <stop offset="1" stop-color="#1B1A19"/>
    </linearGradient>
    <clipPath id="Clip_22">
      <path d="M581.767,100.315 C579.37,100.635 577.784,102.381 576.372,104.18 L558.75,105.287 C561.072,102.929 565.014,101.651 570.72,100.832 L581.686,100.315 L581.767,100.315 z"/>
    </clipPath>
    <linearGradient id="Gradient_28" gradientUnits="userSpaceOnUse" x1="530.601" y1="220.372" x2="547.798" y2="220.372">
      <stop offset="0" stop-color="#FFFFFE"/>
      <stop offset="1" stop-color="#1B1A19"/>
    </linearGradient>
    <clipPath id="Clip_23">
      <path d="M538.967,218.075 L547.419,218.084 C547.347,219.416 547.392,220.613 547.599,221.63 C547.644,221.891 547.734,222.107 547.797,222.341 L541.623,222.656 C539.796,221.972 537.816,221.423 535.728,221.135 C533.587,220.878 531.855,219.809 530.613,218.075 L538.967,218.075 z"/>
    </clipPath>
    <linearGradient id="Gradient_29" gradientUnits="userSpaceOnUse" x1="552.732" y1="115.696" x2="573.156" y2="115.696">
      <stop offset="0" stop-color="#FFFFFE"/>
      <stop offset="1" stop-color="#1B1A19"/>
    </linearGradient>
    <linearGradient id="Gradient_30" gradientUnits="userSpaceOnUse" x1="120.479" y1="122.813" x2="202.554" y2="122.813">
      <stop offset="0" stop-color="#FFFFFE"/>
      <stop offset="1" stop-color="#1B1A19"/>
    </linearGradient>
    <linearGradient id="Gradient_31" gradientUnits="userSpaceOnUse" x1="88.176" y1="119.534" x2="153.11" y2="119.534">
      <stop offset="0" stop-color="#FFFFFE"/>
      <stop offset="1" stop-color="#1B1A19"/>
    </linearGradient>
    <linearGradient id="Gradient_32" gradientUnits="userSpaceOnUse" x1="59.324" y1="121.48" x2="81.299" y2="121.48">
      <stop offset="0" stop-color="#FFFFFE"/>
      <stop offset="1" stop-color="#1B1A19"/>
    </linearGradient>
    <clipPath id="Clip_24">
      <path d="M81.3,61.475 C79.296,63.187 77.839,65.403 76.449,67.613 C75.126,69.863 73.956,72.203 72.966,74.624 C70.896,79.412 69.249,84.389 67.863,89.429 C65.127,99.509 63.39,109.859 62.616,120.263 C61.788,130.667 62.04,141.152 63.471,151.493 C64.182,156.659 65.271,161.78 66.738,166.793 C68.096,171.87 70.147,176.716 72.292,181.5 L72.29,181.5 C70.391,178.484 68.836,175.274 67.35,172.04 C67.143,171.563 66.927,171.095 66.72,170.618 C64.209,164.615 62.373,158.288 61.23,151.853 C60.249,146.624 59.727,141.314 59.448,136.004 C59.196,130.676 59.358,125.357 59.727,120.047 C60.564,109.445 62.463,98.915 65.703,88.781 C67.305,83.714 69.267,78.755 71.688,74.012 C72.894,71.645 74.28,69.359 75.81,67.19 C77.276,64.95 79.199,63.104 81.3,61.475 z"/>
    </clipPath>
    <linearGradient id="Gradient_33" gradientUnits="userSpaceOnUse" x1="40.388" y1="105.228" x2="50.732" y2="105.228">
      <stop offset="0" stop-color="#FFFFFE"/>
      <stop offset="1" stop-color="#1B1A19"/>
    </linearGradient>
    <linearGradient id="Gradient_34" gradientUnits="userSpaceOnUse" x1="19.697" y1="103.372" x2="28.411" y2="103.372">
      <stop offset="0" stop-color="#FFFFFE"/>
      <stop offset="1" stop-color="#1B1A19"/>
    </linearGradient>
    <clipPath id="Clip_25">
      <path d="M28.407,84.569 C25.977,87.053 24.735,90.14 23.88,93.29 C23.079,96.467 22.665,99.752 22.611,103.037 L22.593,105.512 L22.737,107.978 C22.854,109.616 23.088,111.254 23.376,112.874 C23.909,116.203 25.232,119.277 26.894,122.178 L26.892,122.178 C23.931,120.053 22.444,116.737 21.18,113.441 C20.082,110.066 19.632,106.511 19.704,102.974 C19.83,99.446 20.397,95.891 21.738,92.579 C23.034,89.321 25.212,86.072 28.407,84.569 z"/>
    </clipPath>
    <linearGradient id="Gradient_35" gradientUnits="userSpaceOnUse" x1="30.397" y1="104.042" x2="39.33" y2="104.042">
      <stop offset="0" stop-color="#FFFFFE"/>
      <stop offset="1" stop-color="#1B1A19"/>
    </linearGradient>
    <clipPath id="Clip_26">
      <path d="M39.314,86.315 C36.771,88.307 35.45,91.196 34.41,94.163 C33.582,97.124 33.258,100.238 33.294,103.37 C33.294,106.502 33.609,109.661 34.14,112.784 C34.428,114.341 34.743,115.898 35.211,117.419 C35.67,118.931 36.174,120.452 37.191,121.757 C35.715,120.92 34.743,119.408 33.897,117.977 C33.078,116.492 32.439,114.926 31.935,113.324 C30.854,110.131 30.55,106.765 30.398,103.421 L30.398,103.334 C30.538,100.004 30.43,99.883 31.405,95.808 C31.605,94.971 31.992,94.189 32.286,93.38 C33.642,90.127 36.038,87.633 39.301,86.315 L39.314,86.315 z"/>
    </clipPath>
    <linearGradient id="Gradient_36" gradientUnits="userSpaceOnUse" x1="192.597" y1="128.661" x2="212.882" y2="128.661">
      <stop offset="0" stop-color="#FFFFFE"/>
      <stop offset="1" stop-color="#1B1A19"/>
    </linearGradient>
    <clipPath id="Clip_27">
      <path d="M212.841,98.001 C206.776,100.019 202.066,104.125 198.732,109.49 C197.202,112.181 196.113,115.088 195.294,118.103 C194.421,121.064 194.16,124.169 194.079,127.283 C193.872,133.502 194.538,139.793 195.951,145.859 C196.689,148.883 197.652,151.889 199.218,154.553 C199.992,155.885 200.928,157.145 202.188,158.045 C203.421,158.945 205.014,159.377 206.58,159.116 C205.05,159.539 203.34,159.233 201.972,158.36 C200.595,157.514 199.506,156.254 198.615,154.931 C196.851,152.231 195.753,149.189 194.871,146.138 C193.998,143.078 193.467,139.928 193.098,136.769 C192.729,133.61 192.558,130.433 192.63,127.238 C192.756,124.061 193.071,120.83 194.025,117.743 C194.916,114.701 196.032,111.632 197.778,108.923 C199.488,106.205 201.648,103.748 204.267,101.894 C206.828,100.016 209.806,98.894 212.823,98.001 L212.841,98.001 z"/>
    </clipPath>
    <linearGradient id="Gradient_37" gradientUnits="userSpaceOnUse" x1="145.069" y1="128.971" x2="389.44" y2="128.971">
      <stop offset="0" stop-color="#FFFFFE"/>
      <stop offset="1" stop-color="#1B1A19"/>
    </linearGradient>
  </defs>
  <g id="Layer_1">
    <path d="M633.895,330.937 C632.771,326.967 619.104,323.451 616.511,322.862 C613.919,322.273 582.332,317.137 582.671,316.921 C583.01,316.705 581.547,315.396 579.236,314.627 C576.926,313.859 571.114,312.875 568.141,310.697 C565.167,308.515 564.456,305.097 560.357,303.836 C556.259,302.578 539.627,299.728 539.627,299.728 C539.627,299.728 532.325,293.787 505.296,287.377 C501.686,284.991 474.468,275.44 444.489,272.948 C396.853,260.314 368.72,266.589 366.997,277.917 L235.453,254.529 C237.084,251.451 216.008,237.905 187.907,229.655 C159.339,221.27 139.702,219.726 139.702,219.726 C130.186,217.231 97.291,211.3 83.616,214.821 C78.882,214.702 63.435,213.529 55.648,216.056 C42.075,212.832 39.457,213.227 39.457,213.227 C39.457,213.227 34.502,216.374 36.375,218.033 C38.247,219.693 33.09,219.719 33.09,219.719 L13.639,216.222 C13.639,216.222 2.292,214.775 3.035,218.905 C3.76,222.927 16.055,225.952 16.055,225.952 C16.055,225.952 36.174,229.165 39.759,230.545 C43.346,231.93 41.378,236.037 45.999,237.576 C50.619,239.113 64.446,242.119 64.446,242.119 C64.446,242.119 69.141,246.871 95.202,253.488 C116.867,263.319 151.4,269.43 160.689,269.622 C180.322,275.856 235.477,283.085 238.436,266.529 L374.759,291.31 C383.55,304.657 429.699,322.315 464.846,325.183 C484.638,330.906 510.136,332.995 518.359,331.727 C530.543,334.354 549.766,332.956 550.6,331.658 C550.6,331.658 555.639,332.564 557.706,332.833 C565.774,334.72 567.447,330.79 569.713,330.84 C573.728,330.931 577.325,332.76 579.844,332.988 C582.361,333.216 586.734,331.449 584.805,329.827 C584.805,329.827 580.86,327.856 582.41,327.888 C582.576,327.891 583.326,327.681 584.3,327.83 C585.272,327.979 586.468,328.487 588.051,328.748 C589.543,328.992 591.366,329.005 593.232,329.32 C594.86,329.591 596.494,330.155 598.289,330.458 C599.556,330.671 600.014,330.748 601.316,330.967 C602.551,331.178 604.744,331.303 606.072,331.527 C607.908,331.838 609.735,332.5 611.584,332.83 C613.194,333.116 614.789,333.03 616.28,333.275 C617.565,333.487 618.771,334.034 619.88,334.206 C623.264,334.729 625.64,335.048 625.851,335.045 C626.824,335.036 635.018,334.908 633.895,330.937" fill="#676867"/>
    <path d="M467.535,43.691 C457.239,48.353 448.617,55.634 441.804,64.238 C438.357,68.504 435.279,73.067 432.57,77.837 C429.861,82.607 427.377,87.512 425.235,92.579 C420.978,102.713 417.504,113.198 415.011,123.935 C412.428,134.636 410.583,145.544 409.728,156.479 C409.251,161.96 409.044,167.387 409.188,172.841 C409.287,178.412 409.548,183.956 409.818,189.509 C410.403,200.597 411.591,211.631 413.445,222.521 C414.381,227.957 415.623,233.33 417.063,238.64 C418.503,243.959 420.348,249.143 422.589,254.147 C426.995,264.357 433.786,273.31 442.748,279.894 L442.719,279.894 C437.549,277.487 433.099,273.907 429.06,269.933 C425.028,265.829 421.689,261.059 418.8,256.082 C413.13,246.02 409.431,235.013 406.821,223.889 C404.094,212.756 402.69,201.416 401.619,190.094 C401.115,184.433 400.827,178.754 400.602,173.084 C400.377,167.306 400.593,161.492 401.043,155.759 C403.167,132.89 408.846,110.345 419.061,89.717 C424.164,79.43 430.572,69.674 438.609,61.394 C446.637,53.186 456.555,46.517 467.535,43.691 z" fill="url(#Gradient_1)"/>
    <g clip-path="url(#Clip_1)">
      <path d="M500.205,45.986 C489.918,50.657 481.287,57.938 474.483,66.533 C471.027,70.799 467.949,75.362 465.249,80.141 C462.531,84.902 460.047,89.816 457.905,94.874 C453.648,105.008 450.174,115.493 447.69,126.23 C445.098,136.931 443.253,147.848 442.398,158.783 C441.93,164.255 441.714,169.691 441.867,175.145 C441.957,180.707 442.227,186.26 442.488,191.804 C443.082,202.892 444.261,213.926 446.115,224.816 C447.051,230.261 448.293,235.634 449.733,240.944 C451.173,246.254 453.018,251.438 455.259,256.451 C459.666,266.662 466.461,275.612 475.421,282.2 L475.393,282.2 C470.223,279.788 465.775,276.2 461.73,272.228 C457.707,268.124 454.359,263.363 451.479,258.377 C445.809,248.315 442.11,237.308 439.491,226.184 C436.773,215.06 435.36,203.711 434.289,192.398 C433.794,186.728 433.506,181.058 433.281,175.388 C433.047,169.601 433.263,163.787 433.713,158.063 C435.846,135.185 441.516,112.649 451.74,92.012 C456.843,81.725 463.251,71.978 471.279,63.689 C479.307,55.481 489.225,48.812 500.205,45.986 z" fill="url(#Gradient_2)"/>
    </g>
    <path d="M533.951,87.905 C526.923,91.022 521.227,96.146 516.351,101.984 C513.984,104.909 511.869,108.041 510.015,111.317 C508.152,114.593 506.451,117.959 504.984,121.433 C502.059,128.381 499.674,135.581 497.964,142.943 C496.191,150.287 494.931,157.775 494.337,165.281 C494.004,169.034 493.842,172.76 493.941,176.504 C494.013,180.329 494.22,184.127 494.4,187.943 C494.805,195.548 495.624,203.117 496.893,210.587 C498.234,218.03 500.061,225.428 503.166,232.295 C506.19,239.171 510.681,245.516 517.044,249.989 C513.543,248.333 510.357,245.939 507.603,243.122 C504.84,240.305 502.545,237.038 500.565,233.618 C496.677,226.715 494.139,219.164 492.339,211.532 C490.476,203.891 489.513,196.106 488.775,188.339 C488.433,184.46 488.253,180.563 488.109,176.666 C487.956,172.706 488.082,168.71 488.379,164.786 C489.837,149.09 493.734,133.628 500.745,119.462 C504.246,112.406 508.647,105.719 514.155,100.031 C519.622,94.28 526.36,90.207 533.921,87.905 L533.951,87.905 z" fill="url(#Gradient_3)"/>
    <g clip-path="url(#Clip_2)">
      <path d="M633.513,172.193 L637.311,172.436 C636.762,175.658 636.645,178.988 636.816,182.3 C637.099,185.633 636.918,183.98 637.358,187.26 L637.358,187.312 L633.009,187.025 C632.739,185.549 632.55,184.046 632.46,182.543 C632.289,179.087 632.568,175.577 633.513,172.193 z" fill="url(#Gradient_4)"/>
    </g>
    <g clip-path="url(#Clip_3)">
      <path d="M643.779,161.466 C644.144,161.474 643.954,161.466 644.349,161.492 C642.855,162.041 641.694,162.896 640.767,163.931 L638.229,163.769 C639.85,162.259 641.576,161.706 643.718,161.466 L643.779,161.466 z" fill="url(#Gradient_5)"/>
    </g>
    <g clip-path="url(#Clip_4)">
      <path d="M633.694,189.986 L637.896,190.265 C638.166,191.525 638.472,192.785 638.859,194.018 C640.002,197.956 642.029,201.461 644.893,204.372 L644.885,204.372 C642.743,203.741 641.028,202.284 639.435,200.786 C637.923,199.166 636.654,197.294 635.682,195.305 C634.191,191.817 634.854,193.59 633.694,189.989 L633.694,189.986 z" fill="url(#Gradient_6)"/>
    </g>
    <path d="M621.015,189.145 L624.999,189.41 C625.143,189.959 625.278,190.517 625.449,191.066 C626.592,195.007 628.623,198.512 631.488,201.425 L631.488,201.425 C629.34,200.8 627.627,199.336 626.034,197.834 C624.513,196.214 623.244,194.342 622.272,192.353 C621.322,190.237 621.766,191.306 620.942,189.145 L621.015,189.145 z" fill="url(#Gradient_7)"/>
    <g clip-path="url(#Clip_5)">
      <path d="M619.71,171.273 L623.613,171.536 C623.325,174.11 623.271,176.738 623.406,179.348 C623.55,181.733 623.856,184.109 624.315,186.449 L620.049,186.17 C619.509,184.01 619.185,181.805 619.05,179.591 C618.859,176.802 619.159,174.021 619.607,171.273 L619.71,171.273 z" fill="url(#Gradient_8)"/>
    </g>
    <g clip-path="url(#Clip_6)">
      <path d="M630.318,158.513 C630.525,158.513 630.732,158.522 630.939,158.54 C628.696,159.292 627.228,161.035 625.991,162.956 L625.942,162.956 L623.127,162.77 C623.622,162.086 624.162,161.429 624.783,160.844 C626.313,159.431 628.356,158.513 630.318,158.513 z" fill="url(#Gradient_9)"/>
    </g>
    <path d="M618.04,156.873 L618.339,156.893 C615.657,157.874 614.037,159.827 612.975,162.095 L609.971,161.897 L609.971,161.894 C611.334,160.009 610.597,160.909 612.183,159.197 C613.792,157.69 615.517,157.113 617.655,156.873 L618.04,156.873 z" fill="url(#Gradient_10)"/>
    <g clip-path="url(#Clip_7)">
      <path d="M608.807,188.34 L612.624,188.591 C612.705,188.861 612.759,189.149 612.849,189.419 C614.055,193.19 615.738,196.853 618.888,199.778 C616.818,199.148 614.982,197.78 613.434,196.196 C611.913,194.567 610.653,192.695 609.672,190.706 C608.96,189.14 609.297,189.928 608.659,188.34 L608.807,188.34 z" fill="url(#Gradient_11)"/>
    </g>
    <g clip-path="url(#Clip_8)">
      <path d="M606.918,170.423 L610.932,170.69 C610.716,173.012 610.68,175.37 610.806,177.701 C611.327,183.006 610.968,180.371 611.882,185.607 L611.882,185.628 L611.854,185.628 L607.674,185.351 C607.008,182.93 606.603,180.446 606.45,177.953 C606.287,175.432 606.521,172.916 606.873,170.423 L606.918,170.423 z" fill="url(#Gradient_12)"/>
    </g>
    <g clip-path="url(#Clip_9)">
      <path d="M595.281,169.655 L599.295,169.916 C599.016,172.472 598.971,175.064 599.097,177.647 C599.563,182.458 599.252,180.066 600.029,184.822 L600.029,184.842 L599.959,184.842 L595.767,184.559 C595.218,182.372 594.885,180.14 594.75,177.89 C594.606,175.154 594.75,172.373 595.281,169.655 z" fill="url(#Gradient_13)"/>
    </g>
    <g clip-path="url(#Clip_10)">
      <path d="M596.672,187.53 L600.717,187.799 C600.852,188.321 600.978,188.852 601.14,189.365 C602.355,193.136 604.038,196.799 607.179,199.715 C605.109,199.085 603.273,197.726 601.725,196.142 C600.204,194.513 598.944,192.641 597.963,190.652 C597.036,188.595 597.47,189.634 596.66,187.534 L596.66,187.53 L596.672,187.53 z" fill="url(#Gradient_14)"/>
    </g>
    <g clip-path="url(#Clip_11)">
      <path d="M606.333,156.819 L606.63,156.838 L606.63,156.843 C604.353,157.608 602.873,159.384 601.626,161.339 L598.755,161.15 C599.268,160.439 599.826,159.755 600.474,159.143 C602.086,157.633 603.815,157.058 605.955,156.819 L606.333,156.819 z" fill="url(#Gradient_15)"/>
    </g>
    <g clip-path="url(#Clip_12)">
      <path d="M583.237,186.639 L587.199,186.908 C587.289,187.205 587.352,187.511 587.442,187.817 C588.657,191.588 590.34,195.251 593.481,198.167 C591.411,197.537 589.575,196.169 588.027,194.585 C586.515,192.956 585.246,191.093 584.274,189.104 C583.533,187.476 583.883,188.297 583.222,186.64 L583.222,186.639 L583.237,186.639 z" fill="url(#Gradient_16)"/>
    </g>
    <g clip-path="url(#Clip_13)">
      <path d="M581.484,168.746 L585.534,169.016 C585.318,171.356 585.282,173.732 585.399,176.099 C585.923,181.352 585.567,178.741 586.467,183.93 L586.467,183.945 L586.44,183.945 L582.249,183.668 C581.601,181.274 581.205,178.808 581.052,176.342 C580.926,173.813 581.043,171.257 581.484,168.746 z" fill="url(#Gradient_17)"/>
    </g>
    <g clip-path="url(#Clip_14)">
      <path d="M592.691,155.271 L592.936,155.291 L592.936,155.293 C590.406,156.146 588.87,158.185 587.604,160.412 L584.616,160.214 C585.228,159.269 585.948,158.378 586.785,157.595 C588.329,156.13 590.106,155.505 592.178,155.271 L592.691,155.271 z" fill="url(#Gradient_18)"/>
    </g>
    <g clip-path="url(#Clip_15)">
      <path d="M567.655,167.824 L571.701,168.089 C571.575,170.051 571.584,172.031 571.683,174.002 C571.872,177.044 572.295,180.086 572.997,183.056 L568.884,182.777 C568.011,180.005 567.507,177.134 567.336,174.245 C567.3,169.959 567.219,172.099 567.579,167.824 L567.655,167.824 z" fill="url(#Gradient_19)"/>
    </g>
    <g clip-path="url(#Clip_16)">
      <path d="M578.93,153.175 L579.225,153.194 C576.12,154.328 574.428,156.758 573.384,159.467 L570.231,159.26 L570.231,159.25 C570.962,157.847 571.972,156.633 573.06,155.498 C574.662,153.991 576.39,153.414 578.523,153.175 L578.93,153.175 z" fill="url(#Gradient_20)"/>
    </g>
    <g clip-path="url(#Clip_17)">
      <path d="M570.084,185.771 L573.825,186.017 C575.031,189.689 576.705,193.226 579.765,196.07 C577.695,195.449 575.859,194.081 574.311,192.488 C572.79,190.868 571.53,188.996 570.549,187.007 C570.165,186.184 570.35,186.596 569.994,185.771 L570.084,185.771 z" fill="url(#Gradient_21)"/>
    </g>
    <g clip-path="url(#Clip_18)">
      <path d="M552.296,197.503 C550.918,201.905 549.67,206.343 548.562,210.82 L547.585,210.82 L529.122,210.803 C529.329,206.132 530.976,201.038 532.272,198.122 L532.317,198.014 L552.219,197.503 L552.296,197.503 z" fill="url(#Gradient_22)"/>
    </g>
    <g clip-path="url(#Clip_19)">
      <path d="M569.674,126.257 L569.674,126.26 C567.552,129.387 563.772,130.12 560.316,130.856 C558.786,131.171 556.365,132.818 554.178,135.536 L534.386,136.542 L534.011,136.542 C535.413,135.163 534.675,135.842 536.232,134.51 C539.499,131.873 542.415,129.515 544.953,127.346 L569.674,126.257 z" fill="url(#Gradient_23)"/>
    </g>
    <g clip-path="url(#Clip_20)">
      <path d="M550.236,143.017 C548.529,148.81 549.26,153.664 551.253,159.251 C552.819,163.13 553.926,165.38 554.673,167.774 L536.475,168.053 C532.65,159.26 528.366,151.286 529.878,144.041 L550.194,143.017 L550.236,143.017 z" fill="url(#Gradient_24)"/>
    </g>
    <path d="M565.14,228.722 C567.336,233.384 568.686,246.299 574.131,246.821 L556.005,245.741 C556.005,245.741 548.832,238.676 550.911,230.657 C551.658,230.594 551.793,230.117 551.46,229.424 L565.14,228.722 z" fill="url(#Gradient_25)"/>
    <g clip-path="url(#Clip_21)">
      <path d="M555.871,175.044 C555.974,176.782 556.016,178.524 556.03,180.266 L556.03,181.934 C555.92,184.744 555.144,187.476 554.448,190.184 L535.476,190.67 C537.357,185.855 538.86,180.554 538.428,175.289 L554.261,175.044 L555.871,175.044 z" fill="url(#Gradient_26)"/>
    </g>
    <g clip-path="url(#Clip_22)">
      <path d="M581.766,100.315 C579.369,100.635 577.783,102.382 576.372,104.18 L558.75,105.287 C561.072,102.929 565.014,101.651 570.72,100.832 L581.684,100.315 L581.766,100.315 z" fill="url(#Gradient_27)"/>
    </g>
    <g clip-path="url(#Clip_23)">
      <path d="M539.059,218.075 L547.419,218.084 C547.347,219.416 547.392,220.613 547.599,221.63 C547.644,221.891 547.734,222.107 547.797,222.341 L541.623,222.656 C539.796,221.972 537.816,221.423 535.728,221.135 C533.588,220.878 531.855,219.809 530.614,218.075 L539.059,218.075 z" fill="url(#Gradient_28)"/>
    </g>
    <path d="M573.158,111.659 L573.158,111.663 C572.47,114.038 572.015,116.47 571.593,118.904 L552.734,119.732 L552.734,119.725 C554.484,117.711 555.553,115.301 556.149,112.73 L573.158,111.659 z" fill="url(#Gradient_29)"/>
    <path d="M202.554,15.036 L202.554,15.037 C196.671,15.795 190.987,17.499 185.412,19.463 C179.94,21.587 174.747,24.386 170.058,27.842 C160.608,34.709 153.174,43.961 147.387,54.032 C141.645,64.166 137.334,75.11 134.13,86.387 C132.528,92.03 131.106,97.727 129.9,103.487 C129.306,106.376 128.739,109.265 128.199,112.181 C127.632,115.115 127.227,117.869 126.894,120.767 C125.652,132.278 126.147,144.05 127.902,155.57 C129.594,167.108 132.843,178.421 137.685,188.987 C142.599,199.49 149.358,209.246 158.385,216.635 C162.867,220.352 167.934,223.376 173.316,225.698 C178.716,228.02 184.449,229.613 190.326,230.594 C184.386,230.225 178.446,229.154 172.74,227.201 C167.034,225.266 161.589,222.44 156.648,218.903 C151.734,215.312 147.333,211.028 143.481,206.303 C139.629,201.578 136.398,196.385 133.617,190.976 C128.037,180.149 124.554,168.377 122.466,156.452 C120.486,144.491 119.91,132.296 121.125,120.137 C121.485,117.131 121.98,114.008 122.565,111.11 C123.132,108.176 123.726,105.242 124.356,102.308 C125.652,96.44 127.083,90.581 128.874,84.821 C132.465,73.328 137.046,62.006 143.508,51.71 C149.88,41.405 158.205,32.09 168.456,25.493 C173.586,22.244 179.121,19.67 184.89,17.951 C190.611,16.124 196.593,15.464 202.554,15.036 z" fill="url(#Gradient_30)"/>
    <path d="M153.11,10.61 L153.11,10.611 C143.226,14.535 135.18,21.436 128.181,29.273 C121.449,37.247 116.058,46.274 111.603,55.706 C107.157,65.147 103.539,75.002 100.668,85.055 C97.815,95.09 95.511,105.359 94.413,115.646 C94.152,118.202 93.945,120.767 93.936,123.251 L93.972,125.096 L94.089,127.058 L94.341,130.991 C94.701,136.22 95.232,141.44 95.862,146.651 C97.086,157.064 99.003,167.387 101.649,177.494 C104.394,187.565 107.949,197.465 113.223,206.456 C118.4,215.661 125.841,223.302 135.039,228.465 L135.036,228.465 C130.003,226.562 125.534,223.56 121.431,220.127 C117.345,216.617 113.862,212.423 110.811,207.986 C104.763,199.022 100.488,189.005 97.293,178.763 C94.044,168.512 91.974,157.955 90.408,147.371 C89.643,142.07 89.112,136.742 88.68,131.414 L88.383,127.418 L88.257,125.42 L88.185,123.287 C88.185,120.47 88.365,117.743 88.644,115.034 C89.913,104.252 92.289,93.767 95.412,83.489 C98.661,73.265 102.495,63.185 107.562,53.69 C112.503,44.15 118.623,35.141 126.093,27.356 C133.591,19.486 142.786,13.872 153.11,10.61 z" fill="url(#Gradient_31)"/>
    <g clip-path="url(#Clip_24)">
      <path d="M81.3,61.475 C79.311,63.212 77.79,65.372 76.449,67.613 C75.126,69.863 73.956,72.203 72.966,74.624 C70.896,79.412 69.249,84.389 67.863,89.429 C65.127,99.509 63.39,109.859 62.616,120.263 C61.788,130.667 62.04,141.152 63.471,151.493 C64.182,156.659 65.271,161.78 66.738,166.793 C68.096,171.87 70.147,176.716 72.292,181.5 L72.29,181.5 C70.391,178.484 68.836,175.274 67.35,172.04 C67.143,171.563 66.927,171.095 66.72,170.618 C64.209,164.615 62.373,158.288 61.23,151.853 C60.249,146.624 59.727,141.314 59.448,136.004 C59.196,130.676 59.358,125.357 59.727,120.047 C60.564,109.445 62.463,98.915 65.703,88.781 C67.305,83.714 69.267,78.755 71.688,74.012 C72.894,71.645 74.28,69.359 75.81,67.19 C77.331,65.021 79.113,62.96 81.3,61.475 z" fill="url(#Gradient_32)"/>
    </g>
    <path d="M50.724,87.465 C48.637,89.927 47.081,92.756 45.705,95.657 C44.481,98.555 43.662,101.588 43.383,104.675 C43.05,107.753 43.275,110.876 43.941,113.945 C44.625,117.014 45.813,120.002 47.316,122.981 C44.85,120.731 42.942,117.815 41.772,114.584 C40.575,111.362 40.179,107.834 40.494,104.387 C40.854,100.949 41.916,97.574 43.689,94.622 C45.395,91.654 47.826,89.266 50.71,87.465 L50.724,87.465 z" fill="url(#Gradient_33)"/>
    <g clip-path="url(#Clip_25)">
      <path d="M28.407,84.569 C25.977,87.053 24.735,90.14 23.88,93.29 C23.079,96.467 22.665,99.752 22.611,103.037 L22.593,105.512 L22.737,107.978 C22.854,109.616 23.088,111.254 23.376,112.874 C23.909,116.204 25.232,119.277 26.894,122.178 L26.893,122.178 C23.931,120.053 22.444,116.737 21.18,113.441 C20.082,110.066 19.632,106.511 19.704,102.974 C19.83,99.446 20.397,95.891 21.738,92.579 C23.034,89.321 25.212,86.072 28.407,84.569 z" fill="url(#Gradient_34)"/>
    </g>
    <g clip-path="url(#Clip_26)">
      <path d="M39.314,86.315 C36.771,88.307 35.45,91.196 34.41,94.163 C33.582,97.124 33.258,100.238 33.294,103.37 C33.294,106.502 33.609,109.661 34.14,112.784 C34.428,114.341 34.743,115.898 35.211,117.419 C35.67,118.931 36.174,120.452 37.191,121.757 C35.715,120.92 34.743,119.408 33.897,117.977 C33.078,116.492 32.439,114.926 31.935,113.324 C30.854,110.132 30.55,106.766 30.398,103.423 L30.398,103.331 C30.538,100.003 30.431,99.883 31.405,95.808 C31.605,94.971 31.992,94.189 32.286,93.38 C33.642,90.127 36.038,87.633 39.301,86.315 L39.314,86.315 z" fill="url(#Gradient_35)"/>
    </g>
    <g clip-path="url(#Clip_27)">
      <path d="M212.841,98.001 C206.776,100.019 202.066,104.125 198.732,109.49 C197.202,112.181 196.113,115.088 195.294,118.103 C194.421,121.064 194.16,124.169 194.079,127.283 C193.872,133.502 194.538,139.793 195.951,145.859 C196.689,148.883 197.652,151.889 199.218,154.553 C199.992,155.885 200.928,157.145 202.188,158.045 C203.421,158.945 205.014,159.377 206.58,159.116 C205.05,159.539 203.34,159.233 201.972,158.36 C200.595,157.514 199.506,156.254 198.615,154.931 C196.851,152.231 195.753,149.189 194.871,146.138 C193.998,143.078 193.467,139.928 193.098,136.769 C192.729,133.61 192.558,130.433 192.63,127.238 C192.756,124.061 193.071,120.83 194.025,117.743 C194.916,114.701 196.032,111.632 197.778,108.923 C199.488,106.205 201.648,103.748 204.267,101.894 C206.828,100.015 209.806,98.894 212.824,98.001 L212.841,98.001 z" fill="url(#Gradient_36)"/>
    </g>
    <path d="M208.612,37.641 C213.345,38.275 217.695,40.216 221.646,42.827 C225.624,45.527 228.981,49.01 231.807,52.835 C237.477,60.494 241.149,69.395 243.723,78.467 C246.279,87.566 247.719,96.962 248.223,106.394 C248.367,108.86 248.43,111.344 248.448,113.819 L389.44,130.514 L389.44,131.839 L388.911,136.301 L248.367,119.66 C248.214,124.673 247.836,129.677 247.242,134.654 C247.791,129.668 248.142,124.655 248.259,119.642 L227.64,117.203 C227.82,122.225 227.595,127.274 226.992,132.251 C227.559,127.256 227.739,122.216 227.523,117.185 L204.762,114.494 L205.446,108.725 L227.082,111.29 C226.614,107.132 225.822,103.019 224.67,98.996 C223.104,93.65 220.845,88.448 217.47,84.002 C214.185,79.583 209.37,76.001 203.826,75.371 C198.282,74.732 192.81,77.126 188.616,80.672 C184.35,84.218 180.984,88.763 178.257,93.596 C172.839,103.334 169.797,114.269 168.501,125.312 C167.169,136.346 167.574,147.695 170.562,158.432 C172.083,163.769 174.297,168.971 177.618,173.417 C180.867,177.854 185.628,181.454 191.163,182.129 C196.698,182.813 202.215,180.455 206.454,176.927 C210.765,173.399 214.185,168.863 216.957,164.03 C217.632,162.833 218.271,161.627 218.883,160.394 C219.243,159.665 219.567,158.918 219.9,158.171 C222.186,153.122 223.932,147.821 225.183,142.394 C218.397,141.44 211.602,140.468 204.825,139.46 C211.665,140.198 218.496,140.981 225.327,141.782 C226.029,138.632 226.596,135.446 226.992,132.251 C226.623,135.446 226.083,138.632 225.399,141.791 C232.194,142.583 238.98,143.384 245.766,144.212 C246.342,141.035 246.837,137.849 247.242,134.654 C246.864,137.849 246.396,141.035 245.838,144.212 C247.188,144.374 248.538,144.536 249.888,144.698 L294.906,150.323 L339.879,156.281 L362.352,159.377 L384.807,162.626 L362.262,160.079 L339.735,157.388 L294.717,151.763 L249.744,145.805 C248.385,145.616 247.026,145.427 245.667,145.238 C244.704,150.575 243.471,155.858 241.95,161.069 C241.833,161.501 241.716,161.933 241.581,162.356 C241.464,162.752 241.338,163.139 241.221,163.535 C238.566,172.166 235.092,180.554 230.682,188.447 C226.047,196.664 220.395,204.458 213.087,210.578 C209.451,213.638 205.374,216.248 200.874,217.94 C196.41,219.704 191.496,220.37 186.681,219.902 C181.884,219.317 177.204,217.598 173.199,214.898 C169.14,212.252 165.684,208.796 162.759,204.989 C156.909,197.348 152.967,188.456 150.276,179.312 C147.63,170.15 146.109,160.682 145.524,151.178 C144.921,141.674 145.254,132.134 146.307,122.675 C147.486,113.234 149.403,103.883 152.211,94.784 C155.001,85.676 158.691,76.838 163.416,68.54 C168.159,60.278 174.081,52.547 181.56,46.49 C185.286,43.475 189.453,40.919 194.025,39.299 C198.104,37.987 195.725,38.624 201.223,37.641 L208.612,37.641 z M204.698,38.912 C201.169,38.942 197.893,39.743 194.619,40.928 C190.308,42.548 186.366,45.068 182.82,48.038 C175.701,54.005 170.148,61.664 165.576,69.764 C156.477,86.09 151.374,104.477 149.196,123.017 C148.08,132.305 147.693,141.683 148.215,151.025 C148.71,160.358 150.132,169.646 152.661,178.628 C155.199,187.574 158.817,196.331 164.343,203.792 C167.088,207.518 170.337,210.884 174.153,213.467 C177.915,216.122 182.307,217.823 186.852,218.462 C187.986,218.597 189.129,218.66 190.272,218.66 C193.728,218.66 197.202,218.057 200.469,216.833 C204.843,215.276 208.884,212.819 212.511,209.876 C219.801,203.981 225.633,196.385 230.313,188.24 C234.759,180.428 238.287,172.085 240.996,163.499 C241.122,163.103 241.257,162.698 241.383,162.293 C241.509,161.879 241.626,161.456 241.752,161.042 C243.309,155.84 244.578,150.566 245.586,145.229 C238.809,144.302 232.032,143.366 225.264,142.412 C224.049,147.821 222.357,153.131 220.107,158.198 C219.783,158.945 219.468,159.692 219.117,160.43 C218.505,161.69 217.857,162.932 217.173,164.156 C214.428,169.025 211.035,173.615 206.688,177.224 C202.44,180.824 196.824,183.29 191.1,182.633 C185.376,181.985 180.453,178.295 177.114,173.804 C173.685,169.295 171.408,164.03 169.833,158.639 C166.719,147.803 166.233,136.346 167.493,125.195 C168.879,114.053 172.029,103.028 177.591,93.218 C180.39,88.349 183.828,83.759 188.211,80.177 C192.513,76.595 198.165,74.165 203.889,74.867 C209.604,75.56 214.482,79.277 217.776,83.777 C221.151,88.295 223.383,93.551 224.913,98.933 C226.047,102.983 226.812,107.132 227.253,111.308 L248.295,113.801 C248.259,111.335 248.169,108.869 248.016,106.403 C247.44,96.998 245.928,87.629 243.318,78.584 C240.672,69.575 236.775,60.818 231.069,53.384 C228.225,49.676 224.877,46.346 220.989,43.808 C217.137,41.207 212.691,39.596 208.137,39.038 L204.698,38.912 z" fill="url(#Gradient_37)"/>
    <path d="M248.259,119.647 C248.141,124.658 247.795,129.666 247.237,134.651 C246.836,137.849 246.345,141.036 245.768,144.208 C238.979,143.388 232.189,142.579 225.399,141.79 C226.081,138.632 226.619,135.446 226.995,132.248 C227.593,127.271 227.82,122.228 227.642,117.204 L248.259,119.647 z M225.259,142.409 C232.033,143.365 238.81,144.299 245.586,145.228 C244.582,150.562 243.308,155.843 241.755,161.044 L220.111,158.202 C222.358,153.128 224.05,147.824 225.259,142.409 M219.114,160.425 L240.997,163.503 C238.284,172.088 234.762,180.424 230.312,188.241 C225.633,196.388 219.8,203.985 212.515,209.88 C208.88,212.819 204.842,215.28 200.467,216.832 C196.118,218.461 191.417,218.992 186.854,218.464 C182.306,217.82 177.916,216.124 174.15,213.468 C170.339,210.884 167.088,207.514 164.342,203.792 C158.82,196.328 155.196,187.578 152.659,178.628 C150.137,169.648 148.715,160.356 148.214,151.024 C147.69,141.685 148.081,132.308 149.192,123.02 C151.374,104.477 156.483,86.089 165.574,69.769 C170.145,61.668 175.704,54.004 182.823,48.043 C186.363,45.064 190.309,42.549 194.621,40.926 C198.901,39.228 203.56,38.603 208.135,39.042 C212.693,39.595 217.14,41.21 220.985,43.809 C224.877,46.343 228.227,49.679 231.071,53.386 C236.777,60.822 240.671,69.571 243.318,78.585 C245.931,87.633 247.438,96.995 248.013,106.402 C248.169,108.865 248.259,111.331 248.292,113.799 L227.25,111.305 C226.807,107.128 226.045,102.987 224.914,98.928 C223.381,93.548 221.155,88.29 217.778,83.774 C214.482,79.276 209.604,75.561 203.887,74.864 C198.169,74.159 192.513,76.592 188.215,80.179 C183.829,83.762 180.388,88.345 177.59,93.217 C172.032,103.027 168.875,114.047 167.491,125.19 C166.237,136.348 166.724,147.802 169.833,158.638 C171.413,164.03 173.688,169.291 177.112,173.801 C180.452,178.292 185.38,181.981 191.104,182.632 C196.827,183.293 202.438,180.823 206.692,177.22 C211.032,173.619 214.428,169.029 217.177,164.156 C217.859,162.929 218.504,161.686 219.114,160.425 M639.439,200.79 C637.924,199.164 636.656,197.296 635.679,195.306 C634.848,193.592 634.196,191.808 633.689,189.983 L637.899,190.264 C638.17,191.527 638.473,192.784 638.855,194.018 C640.067,197.791 641.753,201.451 644.895,204.374 C642.824,203.744 640.986,202.377 639.439,200.79 M632.461,182.545 C632.292,179.089 632.566,175.574 633.512,172.189 L637.313,172.441 C636.759,175.662 636.644,178.993 636.812,182.301 C636.918,183.98 637.107,185.652 637.36,187.316 L633.01,187.028 C632.738,185.545 632.552,184.047 632.461,182.545 M626.03,197.837 C624.516,196.21 623.25,194.342 622.271,192.352 C621.763,191.305 621.321,190.233 620.938,189.14 L624.999,189.409 C625.145,189.962 625.277,190.518 625.447,191.065 C626.659,194.837 628.345,198.498 631.486,201.421 C629.415,200.792 627.576,199.423 626.03,197.837 M619.053,179.593 C618.917,176.825 619.062,174.016 619.611,171.268 L623.613,171.533 C623.322,174.111 623.271,176.737 623.404,179.348 C623.554,181.731 623.861,184.107 624.318,186.452 L620.048,186.169 C619.513,184.013 619.188,181.806 619.053,179.593 M613.431,196.193 C611.914,194.566 610.65,192.699 609.672,190.708 C609.293,189.929 608.959,189.132 608.651,188.327 L612.622,188.588 C612.701,188.865 612.763,189.147 612.847,189.422 C614.059,193.193 615.743,196.853 618.887,199.775 C616.815,199.145 614.979,197.78 613.431,196.193 M606.454,177.949 C606.329,175.449 606.445,172.916 606.872,170.425 L610.931,170.694 C610.719,173.011 610.684,175.364 610.804,177.704 C610.971,180.367 611.327,183.018 611.885,185.626 L607.673,185.349 C607.007,182.932 606.604,180.446 606.454,177.949 M601.724,196.138 C600.207,194.51 598.943,192.644 597.965,190.653 C597.471,189.635 597.038,188.591 596.661,187.533 L600.717,187.799 C600.856,188.322 600.98,188.848 601.14,189.367 C602.353,193.139 604.036,196.797 607.18,199.719 C605.108,199.09 603.271,197.724 601.724,196.138 M594.746,177.892 C594.61,175.154 594.75,172.375 595.285,169.657 L599.297,169.921 C599.016,172.471 598.967,175.066 599.096,177.648 C599.248,180.063 599.563,182.468 600.03,184.844 L595.767,184.561 C595.216,182.375 594.884,180.137 594.746,177.892 M588.029,194.585 C586.513,192.959 585.249,191.093 584.27,189.102 C583.877,188.296 583.534,187.474 583.219,186.641 L587.199,186.905 C587.285,187.207 587.353,187.514 587.444,187.814 C588.654,191.588 590.342,195.247 593.484,198.169 C591.415,197.54 589.577,196.173 588.029,194.585 M581.052,176.341 C580.928,173.817 581.047,171.257 581.483,168.743 L585.536,169.01 C585.318,171.355 585.283,173.731 585.401,176.097 C585.568,178.733 585.919,181.361 586.468,183.944 L582.249,183.665 C581.598,181.273 581.201,178.811 581.052,176.341 M574.31,192.492 C572.792,190.864 571.525,188.998 570.548,187.007 C570.349,186.596 570.166,186.181 569.988,185.764 L573.825,186.018 C575.031,189.686 576.705,193.23 579.764,196.074 C577.694,195.445 575.856,194.078 574.31,192.492 M556.008,245.745 C556.008,245.745 548.829,238.678 550.91,230.659 C551.662,230.592 551.791,230.116 551.456,229.426 L565.143,228.721 C567.37,233.458 568.725,246.703 574.385,246.836 L556.008,245.745 z M548.564,210.823 L529.118,210.8 C529.333,206.135 530.975,201.042 532.268,198.124 L532.318,198.011 L552.298,197.505 C550.95,201.948 549.529,206.607 548.564,210.823 M541.622,222.659 C539.798,221.972 537.812,221.423 535.729,221.139 C533.27,220.803 531.637,219.671 530.603,218.065 L547.416,218.083 C547.345,219.413 547.391,220.613 547.598,221.634 C547.65,221.891 547.733,222.104 547.799,222.341 L541.622,222.659 z M516.35,101.984 C513.982,104.913 511.871,108.039 510.015,111.319 C508.152,114.591 506.451,117.956 504.98,121.432 C502.061,128.385 499.673,135.579 497.968,142.947 C496.19,150.291 494.927,157.776 494.338,165.282 C494.005,169.035 493.841,172.763 493.943,176.505 C494.016,180.325 494.219,184.132 494.401,187.939 C494.805,195.549 495.62,203.118 496.889,210.588 C498.239,218.032 500.061,225.424 503.165,232.294 C506.194,239.167 510.682,245.52 517.042,249.992 C513.541,248.331 510.361,245.936 507.604,243.119 C504.841,240.303 502.546,237.037 500.567,233.617 C496.676,226.714 494.138,219.161 492.343,211.529 C490.478,203.893 489.51,196.11 488.775,188.341 C488.429,184.457 488.255,180.56 488.11,176.67 C487.954,172.705 488.08,168.715 488.382,164.785 C489.841,149.089 493.733,133.624 500.747,119.465 C504.246,112.408 508.646,105.718 514.155,100.032 C519.665,94.4 526.47,89.826 534.003,87.885 C526.943,91.089 521.024,96.084 516.35,101.984 M474.479,66.532 C471.029,70.801 467.948,75.361 465.246,80.138 C462.533,84.906 460.051,89.812 457.908,94.875 C453.651,105.009 450.173,115.495 447.688,126.232 C445.1,136.935 443.254,147.845 442.4,158.781 C441.927,164.253 441.719,169.687 441.865,175.142 C441.957,180.706 442.223,186.257 442.492,191.805 C443.078,202.896 444.265,213.93 446.117,224.815 C447.052,230.258 448.296,235.631 449.735,240.942 C451.176,246.255 453.016,251.443 455.262,256.448 C459.677,266.465 466.217,275.725 475.486,282.242 C470.384,279.82 465.75,276.332 461.734,272.227 C457.703,268.122 454.359,263.361 451.477,258.377 C445.804,248.318 442.106,237.309 439.49,226.186 C436.771,215.056 435.363,203.712 434.291,192.392 C433.791,186.729 433.503,181.053 433.279,175.382 C433.049,169.603 433.264,163.786 433.716,158.06 C435.844,135.185 441.516,112.646 451.736,92.009 C456.839,81.724 463.25,71.976 471.28,63.686 C479.31,55.479 489.228,48.813 500.208,45.985 C489.916,50.656 481.29,57.935 474.479,66.532 M429.061,269.929 C425.031,265.825 421.687,261.065 418.804,256.081 C413.132,246.02 409.434,235.011 406.817,223.888 C404.096,212.757 402.689,201.415 401.616,190.095 C401.117,184.431 400.827,178.755 400.605,173.085 C400.377,167.305 400.59,161.488 401.043,155.761 C403.171,132.886 408.843,110.349 419.065,89.711 C424.165,79.427 430.577,69.678 438.605,61.388 C446.638,53.181 456.556,46.516 467.532,43.687 C457.242,48.357 448.616,55.637 441.806,64.236 C438.355,68.503 435.276,73.063 432.574,77.841 C429.859,82.607 427.379,87.514 425.234,92.578 C420.979,102.71 417.5,113.198 415.015,123.934 C412.427,134.637 410.581,145.546 409.726,156.483 C409.253,161.956 409.046,167.391 409.192,172.843 C409.283,178.409 409.548,183.959 409.818,189.508 C410.405,200.598 411.591,211.631 413.443,222.519 C414.379,227.961 415.621,233.333 417.064,238.643 C418.505,243.957 420.344,249.145 422.589,254.151 C427.004,264.167 433.544,273.426 442.814,279.943 C437.711,277.523 433.076,274.034 429.061,269.929 M538.432,175.292 L555.87,175.017 C555.98,176.816 556.034,178.946 556.037,181.63 C556.039,183.716 555.388,186.717 554.443,190.184 L535.475,190.666 C537.359,185.858 538.863,180.555 538.432,175.292 M551.253,159.253 C552.817,163.131 553.924,165.38 554.676,167.769 L536.474,168.057 C532.653,159.258 528.366,151.283 529.874,144.04 L550.239,143.01 C548.875,147.49 548.732,153.009 551.253,159.253 M536.229,134.506 C539.496,131.871 542.411,129.516 544.956,127.345 L569.674,126.255 C567.903,129.052 564.754,129.957 560.316,130.857 C558.791,131.167 556.369,132.817 554.18,135.54 L533.989,136.56 C534.652,135.869 535.389,135.183 536.229,134.506 M556.148,112.731 L573.154,111.657 C572.449,114.16 571.955,116.702 571.596,118.899 L552.73,119.731 C554.643,117.349 555.816,115.08 556.148,112.731 M571.682,174.001 C571.873,177.047 572.292,180.084 573.002,183.051 L568.882,182.78 C568.012,180.011 567.506,177.134 567.332,174.246 C567.226,172.114 567.289,169.954 567.576,167.821 L571.697,168.092 C571.572,170.053 571.581,172.033 571.682,174.001 M579.222,153.197 C576.119,154.329 574.424,156.754 573.385,159.47 L570.223,159.26 C570.977,157.886 571.906,156.594 573.058,155.5 C574.749,153.932 577.075,152.975 579.222,153.197 M586.779,157.594 C588.47,156.028 590.796,155.069 592.942,155.293 C590.289,156.261 588.672,158.179 587.606,160.412 L584.613,160.213 C585.231,159.269 585.951,158.383 586.779,157.594 M600.474,159.145 C602.164,157.579 604.49,156.621 606.636,156.842 C604.236,157.719 602.694,159.381 601.63,161.343 L598.757,161.15 C599.272,160.44 599.831,159.757 600.474,159.145 M612.181,159.2 C613.871,157.634 616.198,156.676 618.345,156.898 C615.661,157.876 614.04,159.831 612.978,162.091 L609.967,161.893 C610.597,160.92 611.33,160.007 612.181,159.2 M624.78,160.844 C626.472,159.279 628.797,158.321 630.943,158.543 C628.578,159.405 627.048,161.033 625.986,162.955 L623.127,162.766 C623.626,162.086 624.164,161.432 624.78,160.844 M644.352,161.496 C642.854,162.042 641.693,162.896 640.765,163.933 L638.228,163.766 C639.914,162.219 642.221,161.274 644.352,161.496 M185.417,19.464 C179.939,21.589 174.749,24.384 170.055,27.84 C160.606,34.708 153.176,43.955 147.384,54.029 C141.642,64.168 137.331,75.115 134.128,86.389 C132.53,92.029 131.106,97.728 129.902,103.488 C129.303,106.372 128.742,109.265 128.2,112.18 C127.631,115.116 127.226,117.871 126.895,120.768 C125.65,132.275 126.148,144.051 127.9,155.569 C129.592,167.108 132.84,178.422 137.688,188.986 C142.598,199.486 149.36,209.248 158.385,216.639 C162.87,220.352 167.929,223.374 173.319,225.701 C178.714,228.017 184.448,229.615 190.324,230.598 C184.382,230.225 178.441,229.157 172.738,227.203 C167.03,225.269 161.592,222.444 156.647,218.901 C151.73,215.316 147.331,211.027 143.482,206.306 C139.631,201.581 136.395,196.381 133.614,190.976 C128.037,180.147 124.552,168.374 122.47,156.448 C120.483,144.491 119.907,132.299 121.122,120.138 C121.482,117.13 121.975,114.006 122.562,111.106 C123.13,108.178 123.722,105.239 124.356,102.305 C125.65,96.44 127.084,90.586 128.871,84.824 C132.464,73.327 137.046,62.011 143.509,51.708 C149.881,41.406 158.209,32.09 168.453,25.498 C173.583,22.248 179.123,19.67 184.893,17.949 C190.659,16.204 196.617,15.294 202.563,15.032 C196.668,15.9 190.899,17.342 185.417,19.464 M121.428,220.127 C117.34,216.615 113.865,212.426 110.809,207.985 C104.766,199.025 100.491,189.002 97.297,178.76 C94.042,168.51 91.977,157.955 90.407,147.369 C89.644,142.07 89.111,136.745 88.677,131.417 L88.386,127.416 L88.253,125.416 L88.185,123.285 C88.181,120.469 88.368,117.742 88.641,115.033 C89.908,104.25 92.292,93.766 95.41,83.486 C98.658,73.26 102.493,63.183 107.559,53.686 C112.502,44.147 118.623,35.141 126.088,27.36 C133.62,19.703 142.817,13.389 153.12,10.605 C143.251,14.615 134.922,21.342 128.184,29.273 C121.45,37.246 116.06,46.269 111.601,55.702 C107.158,65.15 103.536,74.998 100.668,85.051 C97.814,95.094 95.511,105.363 94.417,115.646 C94.148,118.206 93.946,120.769 93.932,123.253 L93.974,125.095 L94.086,127.06 L94.338,130.988 C94.702,136.224 95.237,141.444 95.863,146.648 C97.081,157.064 99,167.386 101.651,177.495 C104.39,187.561 107.948,197.465 113.219,206.458 C118.382,215.469 125.639,223.451 135.044,228.468 C130.097,226.541 125.485,223.662 121.428,220.127 M45.702,95.66 C44.483,98.555 43.663,101.587 43.385,104.673 C43.053,107.754 43.275,110.879 43.941,113.947 C44.624,117.015 45.811,119.999 47.318,122.978 C44.852,120.731 42.943,117.811 41.775,114.585 C40.577,111.362 40.181,107.834 40.494,104.388 C40.856,100.946 41.917,97.573 43.685,94.625 C45.423,91.679 47.833,89.115 50.736,87.451 C48.626,90.036 46.945,92.766 45.702,95.66 M34.406,94.159 C33.585,97.124 33.261,100.242 33.295,103.372 C33.29,106.507 33.609,109.66 34.137,112.784 C34.426,114.338 34.741,115.899 35.208,117.417 C35.671,118.932 36.177,120.455 37.187,121.761 C35.713,120.918 34.746,119.409 33.894,117.976 C33.079,116.495 32.437,114.932 31.935,113.327 C30.912,110.12 30.438,106.762 30.392,103.38 C30.414,100.007 30.894,96.555 32.286,93.381 C33.613,90.231 36.12,87.342 39.325,86.308 C36.747,88.421 35.254,91.208 34.406,94.159 M22.735,107.977 C22.856,109.621 23.089,111.251 23.378,112.874 C24.024,116.104 24.97,119.29 26.896,122.181 C24.052,120.112 22.269,116.778 21.183,113.445 C20.083,110.068 19.633,106.51 19.704,102.976 C19.827,99.445 20.398,95.893 21.74,92.578 C23.038,89.318 25.213,86.076 28.411,84.568 C25.972,87.057 24.736,90.144 23.88,93.294 C23.076,96.466 22.667,99.75 22.606,103.04 L22.589,105.511 L22.735,107.977 z M648.998,158.823 C648.791,158.597 646.4,157.766 642.979,156.922 C641.859,156.644 640.569,158.151 639.267,157.895 C637.758,157.597 636.212,155.54 634.577,155.325 C632.699,155.081 630.777,156.516 628.917,156.196 C627.569,155.962 625.396,154.34 624.145,154.125 C622.824,153.897 622.36,153.813 621.078,153.588 C619.258,153.269 617.544,154.413 615.895,154.112 C614.005,153.766 612.214,151.977 610.703,151.673 C609.1,151.355 607.827,152.674 606.844,152.426 C605.86,152.178 605.167,150.358 605.004,150.206 C603.48,148.784 607.738,142.98 607.738,142.98 C609.954,136.848 606.023,123.563 603.511,122.135 C600.999,120.709 597.107,126.162 593.156,122.517 C590.927,120.46 590.075,99.127 581.792,100.313 C579.533,100.636 577.771,102.115 576.367,104.178 L558.75,105.29 C561.07,102.929 565.016,101.655 570.718,100.829 L581.792,100.313 L574.595,98.934 C574.038,91.605 555.483,65.009 543.022,65.682 C535.22,50.96 509.82,35.358 489.281,43.724 C454.275,22.166 405.523,63.18 394.235,120.81 L255.711,105.339 C256.13,19.693 200.646,-0.513 180.162,10.558 C171.021,2.035 135.966,-2.714 112.77,24.224 C85.912,30.661 80.359,49.574 80.359,49.574 C80.359,49.574 66.21,50.465 61.374,53.425 C56.54,56.382 57.645,78.885 53.855,82.125 C50.065,85.364 29.71,80.863 29.71,80.863 C29.71,80.863 17.059,83.412 15.543,102.74 C13.987,122.588 25.393,126.948 25.393,126.948 L45.15,129.348 C45.15,129.348 50.198,134.748 48.031,141.116 C45.864,147.485 50.088,168.246 50.088,168.246 C50.088,168.246 52.59,172.946 66.725,170.622 C64.206,164.612 62.377,158.286 61.23,151.855 C60.25,146.623 59.728,141.313 59.45,136 C59.2,130.679 59.358,125.351 59.725,120.047 C60.567,109.446 62.465,98.917 65.701,88.785 C67.3,83.717 69.265,78.754 71.685,74.016 C72.895,71.646 74.283,69.364 75.812,67.191 C77.331,65.02 79.11,62.963 81.304,61.475 C79.308,63.208 77.791,65.375 76.451,67.612 C75.129,69.863 73.958,72.203 72.964,74.62 C70.895,79.416 69.252,84.39 67.867,89.426 C65.13,99.51 63.391,109.861 62.619,120.266 C61.787,130.667 62.039,141.155 63.468,151.489 C64.184,156.656 65.268,161.777 66.736,166.799 C68.142,171.841 70.058,176.736 72.296,181.516 C70.428,178.486 68.792,175.31 67.35,172.04 C73.91,194.753 88.776,200.909 93.67,205.358 C106.363,236.878 139.78,240.848 149.602,238.116 C149.602,238.116 169.15,250.456 198.817,237.769 C228.487,225.082 251.802,181.073 249.977,164.766 L241.218,163.533 C238.564,172.164 235.092,180.558 230.677,188.45 C226.046,196.663 220.4,204.458 213.088,210.583 C209.451,213.64 205.373,216.244 200.874,217.936 C196.413,219.704 191.501,220.37 186.683,219.9 C181.883,219.319 177.202,217.604 173.196,214.894 C169.138,212.25 165.684,208.795 162.761,204.991 C156.906,197.351 152.967,188.453 150.277,179.315 C147.627,170.144 146.111,160.682 145.53,151.182 C144.926,141.68 145.252,132.134 146.313,122.677 C147.483,113.235 149.407,103.881 152.213,94.78 C155.001,85.68 158.691,76.835 163.413,68.539 C168.156,60.277 174.076,52.551 181.554,46.493 C185.284,43.476 189.456,40.925 194.02,39.303 C198.549,37.605 203.501,37.033 208.307,37.594 C213.101,38.264 217.722,40.058 221.648,42.825 C225.624,45.523 228.98,49.007 231.802,52.832 C237.479,60.499 241.147,69.397 243.725,78.468 C246.283,87.57 247.717,96.965 248.224,106.391 C248.363,108.865 248.434,111.339 248.449,113.816 L389.599,130.534 L388.915,136.303 L248.371,119.658 C248.215,124.669 247.833,129.673 247.237,134.651 C246.861,137.85 246.392,141.04 245.838,144.216 C247.188,144.378 248.539,144.534 249.888,144.698 L294.905,150.321 L339.879,156.278 L362.352,159.374 L384.804,162.622 L362.261,160.08 L339.736,157.386 L294.72,151.76 L249.744,145.802 C248.385,145.615 247.026,145.425 245.665,145.24 C244.701,150.575 243.47,155.861 241.956,161.07 L383.947,179.719 C383.365,238 409.671,298.029 458.873,283.603 C488.743,301.757 517.322,281.879 521.336,273.655 C549.104,269.257 557.447,247.061 557.447,247.061 C557.447,247.061 574.313,249.816 578.58,247.715 C582.847,245.614 584.229,229.276 587.58,221.431 C590.93,213.587 596.82,214.617 599.238,213.138 C601.655,211.66 603.352,206.622 603.062,205.197 C602.774,203.774 634.75,210.381 637.407,210.09 C640.065,209.8 654.159,206.201 656.056,187.533 C657.953,168.865 649.951,159.866 648.998,158.823 M206.584,159.113 C205.054,159.536 203.338,159.235 201.974,158.365 C200.589,157.512 199.509,156.258 198.615,154.933 C196.856,152.231 195.757,149.193 194.872,146.14 C193.995,143.073 193.464,139.926 193.096,136.771 C192.733,133.61 192.561,130.429 192.63,127.238 C192.752,124.062 193.076,120.828 194.027,117.74 C194.919,114.698 196.028,111.631 197.773,108.922 C199.491,106.209 201.651,103.748 204.265,101.891 C206.888,100.058 209.835,98.737 212.901,97.983 C206.921,100.009 201.728,104.06 198.729,109.492 C197.202,112.182 196.115,115.087 195.295,118.104 C194.424,121.066 194.158,124.166 194.082,127.28 C193.873,133.508 194.541,139.789 195.954,145.857 C196.689,148.88 197.648,151.884 199.217,154.554 C199.988,155.885 200.934,157.146 202.186,158.042 C203.422,158.94 205.016,159.377 206.584,159.113 M227.525,117.191 L204.76,114.494 L205.444,108.723 L227.086,111.288 C226.614,107.134 225.825,103.022 224.669,98.999 C223.104,93.654 220.844,88.444 217.472,84.004 C214.181,79.58 209.369,76.002 203.827,75.371 C198.285,74.734 192.812,77.123 188.618,80.672 C184.347,84.216 180.979,88.762 178.255,93.594 C172.836,103.33 169.796,114.273 168.498,125.311 C167.173,136.345 167.571,147.698 170.565,158.43 C172.083,163.766 174.292,168.972 177.618,173.418 C180.864,177.851 185.625,181.455 191.164,182.129 C196.701,182.812 202.215,180.459 206.451,176.926 C210.77,173.399 214.182,168.862 216.957,164.03 C217.633,162.836 218.272,161.622 218.879,160.389 L214.372,159.757 L213.891,157.384 L219.901,158.173 C222.19,153.12 223.928,147.819 225.181,142.397 C218.392,141.438 211.604,140.468 204.823,139.459 C211.661,140.202 218.493,140.984 225.326,141.78 C226.032,138.629 226.596,135.446 226.995,132.248 C227.558,127.26 227.742,122.213 227.525,117.191" fill="#0B0B09"/>
  </g>
</svg>
