<?xml version="1.0" encoding="UTF-8" standalone="no"?>
<!-- Created with Inkscape (http://www.inkscape.org/) -->

<svg
   xmlns:dc="http://purl.org/dc/elements/1.1/"
   xmlns:cc="http://creativecommons.org/ns#"
   xmlns:rdf="http://www.w3.org/1999/02/22-rdf-syntax-ns#"
   xmlns:svg="http://www.w3.org/2000/svg"
   xmlns="http://www.w3.org/2000/svg"
   xmlns:sodipodi="http://sodipodi.sourceforge.net/DTD/sodipodi-0.dtd"
   xmlns:inkscape="http://www.inkscape.org/namespaces/inkscape"
   version="1.1"
   id="svg89052"
   xml:space="preserve"
   width="800"
   height="800"
   viewBox="0 0 800 800"
   sodipodi:docname="weight-lifter-publicdomainvectors.org.svg"
   inkscape:version="0.92.4 (5da689c313, 2019-01-14)"><metadata
     id="metadata89058"><rdf:RDF><cc:Work
         rdf:about=""><dc:format>image/svg+xml</dc:format><dc:type
           rdf:resource="http://purl.org/dc/dcmitype/StillImage" /><dc:title></dc:title></cc:Work></rdf:RDF></metadata><defs
     id="defs89056"><clipPath
       clipPathUnits="userSpaceOnUse"
       id="clipPath89068"><path
         d="M 0,600 H 600 V 0 H 0 Z"
         id="path89066"
         inkscape:connector-curvature="0" /></clipPath></defs><sodipodi:namedview
     pagecolor="#ffffff"
     bordercolor="#666666"
     borderopacity="1"
     objecttolerance="10"
     gridtolerance="10"
     guidetolerance="10"
     inkscape:pageopacity="0"
     inkscape:pageshadow="2"
     inkscape:window-width="1920"
     inkscape:window-height="1018"
     id="namedview89054"
     showgrid="false"
     inkscape:zoom="1.0013867"
     inkscape:cx="400"
     inkscape:cy="400"
     inkscape:window-x="-8"
     inkscape:window-y="-8"
     inkscape:window-maximized="1"
     inkscape:current-layer="g89060" /><g
     id="g89060"
     inkscape:groupmode="layer"
     inkscape:label="weight-lifter-publicdomainvectors.org"
     transform="matrix(1.3333333,0,0,-1.3333333,0,800)"><g
       id="g89062"><g
         id="g89064"
         clip-path="url(#clipPath89068)"><path
           d="m 299.421,91.577 c 104.774,0 190.229,27.683 190.229,61.623 0,33.941 -85.455,61.623 -190.229,61.623 -104.774,0 -190.229,-27.682 -190.229,-61.623 0,-33.94 85.455,-61.623 190.229,-61.623"
           style="fill:#e8e8e7;fill-opacity:1;fill-rule:evenodd;stroke:none"
           id="path89070"
           inkscape:connector-curvature="0" /><path
           d="m 516.411,495.856 c 28.606,0 50.485,-29.7 48.871,-66.338 -1.618,-36.637 -26.117,-66.336 -54.724,-66.336 -28.606,0 -50.488,29.699 -48.87,66.336 1.616,36.638 26.118,66.338 54.723,66.338"
           style="fill:#cdcccb;fill-opacity:1;fill-rule:evenodd;stroke:none"
           id="path89072"
           inkscape:connector-curvature="0" /><path
           d="m 509.092,496.242 c 28.605,0 50.486,-29.701 48.868,-66.338 -1.616,-36.638 -26.115,-66.339 -54.723,-66.339 -28.605,0 -50.485,29.701 -48.87,66.339 1.618,36.637 26.117,66.338 54.725,66.338"
           style="fill:#e8e8e7;fill-opacity:1;fill-rule:evenodd;stroke:none"
           id="path89074"
           inkscape:connector-curvature="0" /><path
           d="m 508.528,483.458 c 2.882,0 5.679,-0.375 8.366,-1.085 -1.478,0.204 -2.984,0.314 -4.513,0.314 -23.095,0 -42.874,-23.977 -44.178,-53.554 -1.143,-25.886 12.243,-47.482 31.083,-52.47 -20.834,2.892 -36.155,25.623 -34.935,53.241 1.303,29.577 21.082,53.554 44.177,53.554"
           style="fill:#cdcccb;fill-opacity:1;fill-rule:evenodd;stroke:none"
           id="path89076"
           inkscape:connector-curvature="0" /><path
           d="m 18.944,490.238 489.318,-57.349 c 2.804,-0.328 2.207,-8.753 -0.602,-8.458 L 17.225,475.91 Z"
           style="fill:#cdcccb;fill-opacity:1;fill-rule:evenodd;stroke:none"
           id="path89078"
           inkscape:connector-curvature="0" /><path
           d="m 290.476,449.459 c 11.865,7.792 23.067,10.959 33.905,11.559 -0.188,4.034 -0.373,8.069 -0.559,12.102 -0.23,4.972 -4.314,10.428 -4.54,15.401 -0.356,7.688 3.14,14.896 2.786,22.584 9.806,2.043 18.071,15.837 27.876,17.879 8.686,1.81 18.918,-8.13 27.607,-6.321 3.981,-8.218 6.649,-13.729 10.631,-21.949 1.349,-3.95 -0.904,-7.717 -1.385,-10.51 2.397,-15.95 2.006,-31.382 -3.853,-39.588 -2.953,-2.054 -5.907,-4.111 -8.862,-6.165 v -5.779 c 18.787,-4.431 30.931,-13.155 25.043,-33.52 11.722,1.792 22.701,5.528 32.366,12.715 2.311,5.714 -5.396,10.177 -8.093,20.033 0.427,5.926 2.517,8.659 9.632,10.981 6.006,1.091 23.469,-3.114 17.723,-10.981 -9.472,-9.92 6.005,-13.003 1.542,-21.96 -23.185,-25.992 -47.835,-44.647 -75.131,-50.086 -4.073,-10.217 -13.868,-19.223 -27.739,-27.356 37.023,-8.439 75.843,-16.262 79.37,-36.217 -6.526,-44.046 -52.807,-75.363 -70.508,-110.575 2.697,1.412 5.393,2.824 8.089,4.236 12.78,-32.555 26.645,-25.106 40.385,-40.901 1.285,-5.395 -1.862,-9.825 -4.043,-12.524 -13.091,-3.638 -28.004,-8.978 -52.524,13.357 -10.705,-2.744 -21.197,-3.54 -36.875,4.751 -1.028,14.319 3.034,26.583 9.133,38.014 1.415,-1.412 2.827,-2.825 4.24,-4.237 33.777,33.906 21.704,57.793 47.004,82.067 -26.712,1.798 -45.72,-8.351 -73.202,-2.7 -4.214,-8.561 -11.548,-9.206 -12.995,-14.727 -8.637,-32.937 -38.822,-46.64 -48.65,-77.354 2.182,-0.256 4.364,-0.514 6.549,-0.77 -6.805,-26.382 3.841,-32.827 10.955,-48.918 0.837,-2.652 -0.703,-5.481 -2.478,-10.801 -24.41,-6.673 -41.09,-1.165 -48.547,18.877 -8.81,4.828 -10.586,13.793 -1.927,28.897 2.955,6.935 5.91,13.871 8.862,20.804 1.412,-0.511 2.827,-1.026 4.237,-1.541 13.615,14.127 8.734,47.326 21.19,77.057 -25.771,22.42 -44.844,46.239 -13.868,80.526 14.666,10.427 26.817,22.835 34.291,38.912 -22.605,-11.417 -45.208,-19.403 -67.811,-21.574 -16.63,24.843 -15.744,50.415 -7.705,76.285 -4.666,14.051 -8.23,27.829 -2.313,39.3 15.116,3.084 22.937,7.474 30.052,-6.165 2.452,1.405 4.227,1.677 6.936,0 5.228,-6.951 5.819,-13.085 2.313,-18.494 -17.794,-12.862 -16.889,-28.493 -6.938,-45.463 6.396,5.741 14.027,10.315 25.043,11.173 15.477,20.055 32.167,34.293 52.786,29.666"
           style="fill:#fbc589;fill-opacity:1;fill-rule:evenodd;stroke:none"
           id="path89080"
           inkscape:connector-curvature="0" /><path
           d="m 374.082,443.896 v -5.224 c 0.539,-0.127 1.071,-0.258 1.598,-0.391 l -1.598,-1.112 c -6.903,1.264 -14.562,2.969 -21.1,5.522 -5.82,2.274 -9.332,4.596 -12.986,9.666 -2.138,2.968 -3.163,6.708 -2.039,9.983 0.481,-2.199 1.224,-4.623 2.89,-6.164 3.713,-3.437 7.909,-6.706 12.715,-8.284 6.625,-2.176 13.586,-3.029 20.52,-3.996"
           style="fill:#e5a35d;fill-opacity:1;fill-rule:evenodd;stroke:none"
           id="path89082"
           inkscape:connector-curvature="0" /><path
           d="m 238.849,181.688 c 2.182,-0.256 4.364,-0.514 6.549,-0.77 -6.805,-26.382 3.841,-32.827 10.955,-48.918 0.837,-2.652 -0.703,-5.481 -2.478,-10.801 -24.41,-6.673 -41.09,-1.165 -48.547,18.877 -8.81,4.828 -10.586,13.793 -1.927,28.897 2.955,6.935 5.91,13.871 8.862,20.804 1.412,-0.511 2.827,-1.026 4.237,-1.541 -7.736,-14.271 4.871,-12.345 22.349,-6.548 m 119.438,10.018 c 2.697,1.412 5.393,2.824 8.089,4.236 12.78,-32.555 26.645,-25.106 40.385,-40.901 1.285,-5.395 -1.862,-9.825 -4.043,-12.524 -13.091,-3.638 -28.004,-8.978 -52.524,13.357 -10.705,-2.744 -21.197,-3.54 -36.875,4.751 -1.028,14.319 3.034,26.583 9.133,38.014 1.415,-1.412 2.827,-2.825 4.24,-4.237 0.835,-9.79 6.05,-15.561 31.595,-2.696"
           style="fill:#7f339d;fill-opacity:1;fill-rule:evenodd;stroke:none"
           id="path89084"
           inkscape:connector-curvature="0" /><path
           d="m 258.113,384.731 c 9.635,3.562 18.371,8.74 26.724,14.613 -7.455,-14.548 0.299,-24.56 7.706,-34.676 -13.23,0.257 -26.458,0.514 -39.688,0.771 0.011,3.251 0.018,6.503 0.026,9.755 2.352,2.57 4.034,5.812 5.232,9.537"
           style="fill:#e5a35d;fill-opacity:1;fill-rule:evenodd;stroke:none"
           id="path89086"
           inkscape:connector-curvature="0" /><path
           d="m 349.425,338.498 c 9.687,-2.208 19.498,-4.375 28.766,-6.726 -25.997,0.128 -65.094,-42.126 -58.921,-59.721 -5.913,-0.096 -12.093,0.345 -18.776,1.718 11.298,19.381 -16.57,39.876 -32.079,47.328 -36.253,-2.993 -43.274,-23.527 -30.725,-55.804 -25.771,22.42 -44.844,46.239 -13.868,80.526 5.555,3.951 10.753,8.187 15.469,12.798 h 0.002 c 36.709,-6.708 73.422,-13.412 110.132,-20.119"
           style="fill:#110f0d;fill-opacity:1;fill-rule:evenodd;stroke:none"
           id="path89088"
           inkscape:connector-curvature="0" /><path
           d="m 239.293,358.617 c -0.461,-7.051 2.787,-15.683 8.671,-23.82 5.384,-7.44 16.059,-7.344 25.036,-12.371 7.919,-4.435 13.842,-14.443 23.36,-14.671 17.105,-0.412 35.883,7.726 53.065,30.743 12.123,7.017 22.402,15.345 27.739,27.356 7.712,17.382 3.485,43.611 2.836,71.199 -1.535,0.406 -4.38,1.213 -5.918,1.619 1.982,-66.368 -57.579,-70.022 -57.141,21.517 -3.428,-0.882 -6.86,-1.762 -10.291,-2.646 12,-55.238 -13.952,-94.351 -51.462,-78.503 -4.218,-7.852 -9.772,-14.413 -15.895,-20.423"
           style="fill:#ed1f24;fill-opacity:1;fill-rule:evenodd;stroke:none"
           id="path89090"
           inkscape:connector-curvature="0" /><path
           d="m 420.747,443.146 12.694,-1.489 -5.495,-8.858 -11.664,1.224 z m -250.419,29.349 15.876,-1.861 12.636,-13.788 -33.272,3.493 z"
           style="fill:#cdcccb;fill-opacity:1;fill-rule:evenodd;stroke:none"
           id="path89092"
           inkscape:connector-curvature="0" /><path
           d="m 324.179,465.366 c -7.639,22.323 -11.65,43.334 -0.766,58.967 10.903,6.375 22.551,10.966 36.025,11.173 19.666,13.114 23.601,-8.46 19.937,-16.61 -8.4,-0.573 -23.479,-0.744 -27.642,5.051 -9.489,-6.315 -12.41,-13.526 -10.595,-21.384 -2.303,-4.785 -2.785,-10.38 -1.977,-16.548 l -2.661,-1.477 c -1.663,1.513 -3.329,3.028 -4.995,4.541 -10.327,3.917 -14.53,1.486 -4.046,-16.182 -1.094,-2.51 -2.187,-5.02 -3.28,-7.531"
           style="fill:#945d29;fill-opacity:1;fill-rule:evenodd;stroke:none"
           id="path89094"
           inkscape:connector-curvature="0" /><path
           d="m 373.161,496.243 c -11.912,4.062 -10.913,1.836 -22.73,-3.275 9.565,2.391 12.853,3.747 22.73,3.275"
           style="fill:#945d29;fill-opacity:1;fill-rule:evenodd;stroke:none"
           id="path89096"
           inkscape:connector-curvature="0" /><path
           d="m 388.455,499.696 c -2.049,-1.231 -4.851,-0.382 -6.756,-3.491 2.655,2.521 4.804,0.949 6.902,1.524 0.239,0.8 0.258,1.49 -0.146,1.967"
           style="fill:#945d29;fill-opacity:1;fill-rule:evenodd;stroke:none"
           id="path89098"
           inkscape:connector-curvature="0" /><path
           d="m 385.031,464.627 -1.543,0.77 -2.408,-0.673 -1.251,0.77 -9.246,-3.082 9.341,1.253 1.255,-0.482 z"
           style="fill:#945d29;fill-opacity:1;fill-rule:evenodd;stroke:none"
           id="path89100"
           inkscape:connector-curvature="0" /><path
           d="m 370.334,490.267 c -2.655,-3.871 -9.623,-3.529 -12.862,-0.87 0.985,0.439 1.971,0.881 2.957,1.32 0.802,0.227 1.605,0.454 2.408,0.679 0.535,0.053 1.068,0.104 1.602,0.157 0.846,0.054 1.692,0.108 2.537,0.162 1.119,-0.483 2.238,-0.965 3.358,-1.448"
           style="fill:#ffffff;fill-opacity:1;fill-rule:evenodd;stroke:none"
           id="path89102"
           inkscape:connector-curvature="0" /><path
           d="m 384.6,461.737 -0.459,-2.431 -2.719,0.24 -3.156,-1.421 -6.333,2.77 5.995,-1.277 3.662,0.843 1.853,-0.192 h 0.12 z"
           style="fill:#945d29;fill-opacity:1;fill-rule:evenodd;stroke:none"
           id="path89104"
           inkscape:connector-curvature="0" /><path
           d="m 365.543,488.173 c 1.009,0 1.832,0.795 1.832,1.77 0,0.974 -0.823,1.769 -1.832,1.769 -1.008,0 -1.828,-0.795 -1.828,-1.769 0,-0.975 0.82,-1.77 1.828,-1.77"
           style="fill:#60ccf5;fill-opacity:1;fill-rule:evenodd;stroke:none"
           id="path89106"
           inkscape:connector-curvature="0" /><path
           d="m 371.313,489.843 c -4.608,4.511 -10.691,1.426 -15.991,-0.97 5.29,0.873 8.072,4.609 15.991,0.97"
           style="fill:#110f0d;fill-opacity:1;fill-rule:evenodd;stroke:none"
           id="path89108"
           inkscape:connector-curvature="0" /><path
           d="m 365.672,489.098 c 0.474,0 0.862,0.373 0.862,0.833 0,0.457 -0.388,0.831 -0.862,0.831 -0.475,0 -0.861,-0.374 -0.861,-0.831 0,-0.46 0.386,-0.833 0.861,-0.833"
           style="fill:#110f0d;fill-opacity:1;fill-rule:evenodd;stroke:none"
           id="path89110"
           inkscape:connector-curvature="0" /><path
           d="m 364.967,489.703 c 0.176,0 0.32,0.178 0.32,0.397 0,0.218 -0.144,0.397 -0.32,0.397 -0.176,0 -0.319,-0.179 -0.319,-0.397 0,-0.219 0.143,-0.397 0.319,-0.397"
           style="fill:#ffffff;fill-opacity:1;fill-rule:evenodd;stroke:none"
           id="path89112"
           inkscape:connector-curvature="0" /><path
           d="m 365.162,489.04 c 0.136,0 0.243,0.089 0.243,0.198 0,0.11 -0.107,0.2 -0.243,0.2 -0.133,0 -0.242,-0.09 -0.242,-0.2 0,-0.109 0.109,-0.198 0.242,-0.198"
           style="fill:#ffffff;fill-opacity:1;fill-rule:evenodd;stroke:none"
           id="path89114"
           inkscape:connector-curvature="0" /><path
           d="m 386.431,493.367 c 1.06,-2.121 0.865,-3.833 -0.351,-5.214 -3.207,0.162 -4.53,1.074 -4.362,2.586 1.57,0.876 3.142,1.753 4.713,2.628"
           style="fill:#ffffff;fill-opacity:1;fill-rule:evenodd;stroke:none"
           id="path89116"
           inkscape:connector-curvature="0" /><path
           d="m 385.019,488.992 c 1.007,0 1.831,0.795 1.831,1.77 0,0.976 -0.824,1.769 -1.831,1.769 -1.006,0 -1.829,-0.793 -1.829,-1.769 0,-0.975 0.823,-1.77 1.829,-1.77"
           style="fill:#60ccf5;fill-opacity:1;fill-rule:evenodd;stroke:none"
           id="path89118"
           inkscape:connector-curvature="0" /><path
           d="m 385.149,489.917 c 0.474,0 0.86,0.373 0.86,0.833 0,0.458 -0.386,0.831 -0.86,0.831 -0.474,0 -0.861,-0.373 -0.861,-0.831 0,-0.46 0.387,-0.833 0.861,-0.833"
           style="fill:#110f0d;fill-opacity:1;fill-rule:evenodd;stroke:none"
           id="path89120"
           inkscape:connector-curvature="0" /><path
           d="m 384.441,490.522 c 0.179,0 0.322,0.178 0.322,0.397 0,0.218 -0.143,0.397 -0.322,0.397 -0.175,0 -0.318,-0.179 -0.318,-0.397 0,-0.219 0.143,-0.397 0.318,-0.397"
           style="fill:#ffffff;fill-opacity:1;fill-rule:evenodd;stroke:none"
           id="path89122"
           inkscape:connector-curvature="0" /><path
           d="m 384.64,489.859 c 0.132,0 0.243,0.089 0.243,0.198 0,0.11 -0.111,0.199 -0.243,0.199 -0.136,0 -0.245,-0.089 -0.245,-0.199 0,-0.109 0.109,-0.198 0.245,-0.198"
           style="fill:#ffffff;fill-opacity:1;fill-rule:evenodd;stroke:none"
           id="path89124"
           inkscape:connector-curvature="0" /><path
           d="m 381.083,490.212 c 2.105,1.688 2.729,2.455 5.348,3.155 0.481,0.131 0.625,-1.021 1.226,-1.481 -0.511,0.145 -0.933,0.903 -1.359,0.803 -2.714,-0.628 -3.294,-1.301 -5.215,-2.477"
           style="fill:#110f0d;fill-opacity:1;fill-rule:evenodd;stroke:none"
           id="path89126"
           inkscape:connector-curvature="0" /><path
           d="m 383.89,475.552 c 0.374,-2.754 -1.911,-3.124 -3.466,-3.901 -1.153,-0.574 -2.587,0.466 -3.854,0.24 -1.324,-0.235 -2.368,-1.664 -3.709,-1.588 -0.988,0.054 -1.508,1.284 -2.263,1.926 0.529,-0.963 0.527,-2.605 1.588,-2.89 1.512,-0.405 2.975,1.064 4.528,1.253 1.895,0.231 4.161,-1.086 5.73,0 1.417,0.979 2.843,2.97 1.446,4.96"
           style="fill:#945d29;fill-opacity:1;fill-rule:evenodd;stroke:none"
           id="path89128"
           inkscape:connector-curvature="0" /><path
           d="m 102.234,565.268 c 20.639,0 34.916,-40.794 31.886,-91.116 -3.03,-50.321 -22.219,-91.116 -42.858,-91.116 -0.203,0 -0.403,0.011 -0.604,0.02 l -0.002,-0.008 -11.108,0.433 0.262,4.139 c -14.173,11.993 -22.863,46.199 -20.434,86.532 2.458,40.855 15.567,75.427 31.46,86.991 l 0.289,4.559 z"
           style="fill:#cdcccb;fill-opacity:1;fill-rule:evenodd;stroke:none"
           id="path89130"
           inkscape:connector-curvature="0" /><path
           d="m 18.867,490.165 c 2.551,0 4.255,-3.191 3.802,-7.127 -0.453,-3.936 -2.891,-7.128 -5.444,-7.128 -2.554,0 -4.256,3.192 -3.804,7.128 0.454,3.936 2.892,7.127 5.446,7.127"
           style="fill:#e8e8e7;fill-opacity:1;fill-rule:evenodd;stroke:none"
           id="path89132"
           inkscape:connector-curvature="0" /><path
           d="m 90.518,565.713 c 20.641,0 34.916,-40.794 31.888,-91.116 -3.03,-50.322 -22.218,-91.116 -42.858,-91.116 -20.641,0 -34.918,40.794 -31.888,91.116 3.029,50.322 22.216,91.116 42.858,91.116"
           style="fill:#e8e8e7;fill-opacity:1;fill-rule:evenodd;stroke:none"
           id="path89134"
           inkscape:connector-curvature="0" /><path
           d="m 89.868,554.923 c 1.149,0 2.275,-0.144 3.376,-0.423 -17.458,-2.391 -33.306,-37.378 -35.884,-80.192 -2.501,-41.563 8.388,-75.751 24.737,-79.902 -0.632,-0.087 -1.264,-0.135 -1.901,-0.135 -18.196,0 -30.781,35.961 -28.111,80.326 2.671,44.364 19.587,80.326 37.783,80.326"
           style="fill:#cdcccb;fill-opacity:1;fill-rule:evenodd;stroke:none"
           id="path89136"
           inkscape:connector-curvature="0" /><path
           d="m 37.538,488.058 43.48,-5.097 c 4.528,-0.529 3.106,-14.073 -1.425,-13.598 l -43.112,4.527 z"
           style="fill:#cdcccb;fill-opacity:1;fill-rule:evenodd;stroke:none"
           id="path89138"
           inkscape:connector-curvature="0" /></g></g></g></svg>